<svg width="100" height="29" viewBox="0 0 100 29" fill="none" xmlns="http://www.w3.org/2000/svg">
<path d="M34 12.7363V1.47266H36.8843C39.3618 1.47266 40.6313 2.50864 40.6313 4.82903C40.6313 7.14941 39.3301 8.26468 36.8843 8.26468H35.8647V12.7346H34V12.7363ZM36.9635 6.61733C37.8721 6.61733 38.7191 6.20857 38.7191 4.82903C38.7191 3.62038 38.0922 3.16582 36.9952 3.16582H35.8665V6.61733H36.9635Z" fill="#94DDBC"/>
<path d="M43.2999 1.47266H41.6377V12.7363H43.2999V1.47266Z" fill="#94DDBC"/>
<path d="M48.4415 12.736L48.3464 11.8726C47.7037 12.5316 46.9835 12.8769 46.1366 12.8769C44.992 12.8769 44.3018 12.0929 44.3018 10.7274C44.3018 9.80245 44.631 9.09593 45.3354 8.57794C45.9622 8.09167 46.9976 7.74634 48.2672 7.3693C48.3605 6.30337 48.1263 5.78537 47.2952 5.78537C46.6049 5.78537 46.214 6.19237 45.9781 6.91473L44.6293 6.58526C44.9902 5.26738 45.7897 4.41992 47.3885 4.41992C49.1599 4.41992 49.8977 5.26738 49.8977 6.99226V11.1961L50.0227 12.7342H48.4397L48.4415 12.736ZM48.2231 8.54623C47.3304 8.79818 46.8268 9.00079 46.4676 9.29855C46.1383 9.56459 46.0133 9.9892 46.0133 10.4755C46.0133 11.0868 46.2809 11.4797 46.8127 11.4797C47.3445 11.4797 47.8639 11.182 48.2231 10.6957V8.54623Z" fill="#94DDBC"/>
<path d="M55.167 12.7363V7.26221C55.167 6.36894 54.8994 6.00775 54.32 6.00775C53.8816 6.00775 53.4572 6.24208 52.9572 6.8235V12.7381H51.2949V4.58063H52.9096V5.55319C53.584 4.80087 54.2109 4.42383 55.042 4.42383C55.7322 4.42383 56.2341 4.68987 56.4841 5.16029C56.75 5.58314 56.8134 6.18041 56.8134 7.07368V12.7363H55.167Z" fill="#94DDBC"/>
<path d="M60.8154 12.8781C58.8555 12.8781 57.8994 11.5761 57.8994 8.61082C57.8994 5.97506 58.9189 4.42285 60.8471 4.42285C62.9636 4.42285 63.7014 6.10192 63.7014 8.18797C63.7014 8.4223 63.7014 8.69011 63.6855 8.98787H59.5C59.5634 10.6969 59.9244 11.4985 60.8964 11.4985C61.6482 11.4985 62.0568 10.9805 62.2909 10.1331L63.6873 10.415C63.2488 12.1399 62.2909 12.8781 60.8189 12.8781M59.5141 7.77922H62.1008C62.1008 6.57057 61.724 5.75483 60.8471 5.75483C60.0318 5.75483 59.625 6.47543 59.5141 7.77922Z" fill="#94DDBC"/>
<path d="M68.4457 12.6885C68.039 12.766 67.6305 12.8136 67.1603 12.8136C65.8133 12.8136 65.3097 12.3114 65.3097 10.7592V5.97573H64.2285V4.58033H65.3097V1.92871H66.9561V4.58033H68.4457V5.97573H66.9561V10.4773C66.9561 11.0587 67.1762 11.2931 67.6622 11.2931C67.914 11.2931 68.1798 11.2614 68.4457 11.1838V12.6902V12.6885Z" fill="#94DDBC"/>
<path d="M73.2833 12.736L73.1882 11.8726C72.5455 12.5316 71.8253 12.8769 70.9783 12.8769C69.8338 12.8769 69.1436 12.0929 69.1436 10.7274C69.1436 9.80245 69.4728 9.09593 70.1772 8.57794C70.804 8.09167 71.8394 7.74634 73.109 7.3693C73.2023 6.30337 72.9681 5.78537 72.137 5.78537C71.4467 5.78537 71.0558 6.19237 70.8199 6.91473L69.4711 6.58526C69.832 5.26738 70.6315 4.41992 72.2303 4.41992C74.0017 4.41992 74.7395 5.26738 74.7395 6.99226V11.1961L74.8645 12.7342H73.2815L73.2833 12.736ZM73.0649 8.54623C72.1722 8.79818 71.6686 9.00079 71.3094 9.29855C70.9801 9.56459 70.8551 9.9892 70.8551 10.4755C70.8551 11.0868 71.1227 11.4797 71.6545 11.4797C72.1863 11.4797 72.7057 11.182 73.0649 10.6957V8.54623Z" fill="#94DDBC"/>
<path d="M76.1365 12.7371V4.57966H77.7512V5.92925C78.2848 4.9567 78.8165 4.42285 79.6793 4.42285C79.7568 4.42285 79.8361 4.43871 79.9452 4.45456V6.16535C79.8202 6.14949 79.6952 6.13363 79.6159 6.13363C78.8165 6.13363 78.2372 6.61991 77.797 7.52904V12.7371H76.1348H76.1365Z" fill="#94DDBC"/>
<path d="M80.7432 1.39551H82.467V3.24724H80.7432V1.39551ZM80.7749 4.57921H82.4371V12.7367H80.7749V4.57921Z" fill="#94DDBC"/>
<path d="M87.7302 12.7366V11.764C87.0399 12.5163 86.4131 12.8775 85.582 12.8775C84.8935 12.8775 84.4216 12.6273 84.1557 12.1569C83.8898 11.7341 83.8105 11.1368 83.8105 10.2435V4.58086H85.5045V10.055C85.5045 10.95 85.7246 11.3095 86.3356 11.3095C86.7582 11.3095 87.1826 11.0734 87.6685 10.4937V4.5791H89.3466V12.7366H87.7319H87.7302Z" fill="#94DDBC"/>
<path d="M98.1369 12.7371V7.19957C98.1369 6.29044 97.8076 6.00677 97.3692 6.00677C96.9307 6.00677 96.5222 6.27282 96.1154 6.77495V12.7354H94.4532V7.26123C94.4532 6.39791 94.2648 6.00677 93.7172 6.00677C93.2787 6.00677 92.8227 6.33624 92.4318 6.83838V12.7371H90.7695V4.57966H92.3842V5.53636C92.9952 4.82985 93.6696 4.42285 94.4374 4.42285C95.2526 4.42285 95.7228 4.83161 95.9429 5.53636C96.6014 4.79989 97.2283 4.42285 98.0436 4.42285C99.3448 4.42285 99.7833 5.41126 99.7833 6.93352V12.7371H98.1369Z" fill="#94DDBC"/>
<path d="M34 28.8596V17.5977H39.8477V19.2908H35.8665V22.2243H38.83V23.8558H35.8665V28.8596H34Z" fill="#94DDBC"/>
<path d="M40.2332 28.8592V20.7017H41.8479V22.0513C42.3814 21.0788 42.9132 20.5449 43.776 20.5449C43.8535 20.5449 43.9327 20.5608 44.0419 20.5766V22.2874C43.9169 22.2716 43.7919 22.2557 43.7126 22.2557C42.9132 22.2557 42.3339 22.742 41.8937 23.6511V28.8592H40.2314H40.2332Z" fill="#94DDBC"/>
<path d="M44.8398 17.5176H46.5637V19.3693H44.8398V17.5176ZM44.8715 20.703H46.5338V28.8605H44.8715V20.703Z" fill="#94DDBC"/>
<path d="M51.6088 28.8125C51.2021 28.89 50.7935 28.9376 50.3234 28.9376C48.9764 28.9376 48.4728 28.4355 48.4728 26.8832V22.0998H47.3916V20.7044H48.4728V18.0527H50.1191V20.7044H51.6088V22.0998H50.1191V26.6013C50.1191 27.1828 50.3392 27.4171 50.8252 27.4171C51.077 27.4171 51.3429 27.3854 51.6088 27.3079V28.8143V28.8125Z" fill="#94DDBC"/>
<path d="M52.2539 28.8598V27.6054L55.4516 22.0995H52.5515V20.7041H57.4273V21.9744L54.2278 27.4644H57.5206V28.8598H52.2539Z" fill="#94DDBC"/>
<path d="M60.132 17.5977H58.4697V28.8613H60.132V17.5977Z" fill="#94DDBC"/>
<path d="M65.2765 28.859L65.1814 27.9957C64.5387 28.6546 63.8185 29 62.9715 29C61.827 29 61.1367 28.2159 61.1367 26.8505C61.1367 25.9255 61.466 25.219 62.1703 24.701C62.7972 24.2147 63.8326 23.8694 65.1021 23.4923C65.1955 22.4264 64.9613 21.9084 64.1301 21.9084C63.4399 21.9084 63.049 22.3154 62.813 23.0378L61.4642 22.7083C61.8252 21.3904 62.6246 20.543 64.2235 20.543C65.9949 20.543 66.7327 21.3904 66.7327 23.1153V27.3191L66.8577 28.8573H65.2747L65.2765 28.859ZM65.0581 24.671C64.1654 24.923 63.6618 25.1256 63.3026 25.4234C62.9733 25.6894 62.8483 26.114 62.8483 26.6003C62.8483 27.2117 63.1159 27.6046 63.6477 27.6046C64.1795 27.6046 64.6989 27.3068 65.0581 26.8205V24.671Z" fill="#94DDBC"/>
<path d="M68.1277 28.8592V20.7017H69.7424V22.0513C70.276 21.0788 70.8095 20.5449 71.6705 20.5449C71.748 20.5449 71.8273 20.5608 71.9364 20.5766V22.2874C71.8114 22.2716 71.6864 22.2557 71.6072 22.2557C70.8077 22.2557 70.2284 22.742 69.7882 23.6511V28.8592H68.126H68.1277Z" fill="#94DDBC"/>
<path d="M8.22203 15.9741L1.53027 17.6247V14.0977C3.01742 14.9069 5.02126 15.5034 7.50649 15.875C7.74679 15.9111 7.98557 15.9441 8.22203 15.9741Z" fill="#94DDBC"/>
<path d="M4.2274 21.9454L1.53027 22.8529V19.748L4.2274 21.9454Z" fill="#94DDBC"/>
<path d="M7.56944 24.6677L1.53027 26.4197V23.07L1.53795 23.093L4.43853 22.1172L7.56944 24.6677Z" fill="#94DDBC"/>
<path d="M7.78672 24.8447L8.00015 25.0182L7.93643 28.6351H1.53027V26.6597L7.78672 24.8447Z" fill="#94DDBC"/>
<path d="M4.69629 22.031L8.07211 20.8955L8.00839 24.5408L7.83795 24.5899L4.69629 22.031Z" fill="#94DDBC"/>
<path d="M12.5261 19.1535L9.27616 20.2468L9.24085 18.2299L8.11916 18.2161L8.07616 20.6506L4.48537 21.8591L1.53027 19.4514V17.8629L8.87156 16.0518H8.87232C9.11877 16.0786 9.36062 16.1024 9.59785 16.1239L12.5261 19.1535Z" fill="#94DDBC"/>
<path d="M15.6035 22.3365L9.344 24.153L9.28027 20.4885L12.7037 19.3369L15.6035 22.3365Z" fill="#94DDBC"/>
<path d="M9.37891 26.1416L12.1474 28.3973L11.4204 28.6353H9.4219L9.37891 26.1416Z" fill="#94DDBC"/>
<path d="M12.3598 28.5693L12.4396 28.6346H12.1602L12.3598 28.5693Z" fill="#94DDBC"/>
<path d="M12.6201 28.484L16.6293 27.1719L16.604 28.6344H12.8051L12.6201 28.484Z" fill="#94DDBC"/>
<path d="M16.6943 23.4647L16.6337 26.9281L12.4072 28.3116L9.37299 25.8394L9.34766 24.3914L15.7845 22.5234L16.6943 23.4647Z" fill="#94DDBC"/>
<path d="M16.0342 22.4512L16.7152 22.2539L16.6998 23.1391L16.0342 22.4512Z" fill="#94DDBC"/>
<path d="M12.7678 19.0725L9.94629 16.1542C11.3597 16.2694 12.5597 16.2917 13.2883 16.2917C13.6876 16.2917 13.9179 16.2847 13.9271 16.284C14.0292 16.2809 16.463 16.2018 19.1693 15.7657C19.3352 15.7389 19.4987 15.712 19.6592 15.6836L20.3632 16.5166L12.7678 19.0725Z" fill="#94DDBC"/>
<path d="M23.3745 20.0819L17.968 21.6512L17.9089 18.2301L16.7864 18.2162L16.7196 22.0136L15.8536 22.2646L12.9453 19.2558L20.5231 16.7061L23.3745 20.0819Z" fill="#94DDBC"/>
<path d="M24.5491 14.1953V15.1089L20.599 16.4379L19.9219 15.6356C21.9012 15.2717 23.4466 14.7896 24.5491 14.1953Z" fill="#94DDBC"/>
<path d="M20.7578 16.6268L24.5482 15.3516V19.7416L23.6169 20.0118L20.7578 16.6268Z" fill="#94DDBC"/>
<path d="M23.7793 20.2039L24.5486 19.9805V21.1144L23.7793 20.2039Z" fill="#94DDBC"/>
<path d="M19.2227 26.0805L18.0511 26.4636L18.0234 24.8398L19.2227 26.0805Z" fill="#94DDBC"/>
<path d="M19.4008 26.2646L21.6918 28.6347H18.0887L18.0557 26.7053L19.4008 26.2646Z" fill="#94DDBC"/>
<path d="M24.5483 21.4713V24.3374L19.4657 26.0011L18.017 24.5024L17.9717 21.8898L23.5371 20.2744L24.5483 21.4713Z" fill="#94DDBC"/>
<path d="M19.6445 26.1845L24.549 24.5791V28.6344H22.0123L19.6445 26.1845Z" fill="#94DDBC"/>
<path d="M4.23945 6.81899L4.02832 6.87503C4.05673 6.81669 4.0859 6.75834 4.11661 6.69922L4.23945 6.81899Z" fill="#94DDBC"/>
<path d="M6.6465 4.17691L5.68066 4.451C5.89256 4.21913 6.1083 4.00493 6.32404 3.80762L6.6465 4.17691Z" fill="#94DDBC"/>
<path d="M4.49974 6.74918L4.22949 6.48584C4.47287 6.03824 4.76231 5.5845 5.10857 5.13383C5.20454 5.00868 5.30205 4.88738 5.40109 4.77068L6.81453 4.36914L8.0629 5.80177L4.49974 6.74918Z" fill="#94DDBC"/>
<path d="M5.22645 11.6009L1.013 12.9821C0.994575 12.969 0.975382 12.956 0.956955 12.9421C0.427971 12.5544 0.0433256 12.1107 0.00340231 11.5778C-0.0979415 10.2235 2.09631 9.14329 2.37039 9.01201C2.36118 9.67688 2.3512 10.3425 2.34199 11.0082H2.96924C2.99919 10.3441 3.13047 8.8431 3.89976 7.14789L4.43259 7.00586L8.16542 10.6381L5.46983 11.521L3.8276 9.82276L3.66176 9.98245L5.22645 11.6009Z" fill="#94DDBC"/>
<path d="M5.40398 11.7852L8.87193 15.3721C6.28152 15.085 3.25503 14.4654 1.25195 13.1464L5.40398 11.7852Z" fill="#94DDBC"/>
<path d="M6.89149 4.10736L6.49609 3.65438C7.15406 3.07857 7.81126 2.65093 8.38784 2.33691L9.30378 3.42175L6.89149 4.10736Z" fill="#94DDBC"/>
<path d="M9.46704 3.61523L10.7177 5.09624L8.31004 5.73654L7.05859 4.29931L9.46704 3.61523Z" fill="#94DDBC"/>
<path d="M4.69238 6.93639L8.23174 5.99512L11.3626 9.58975L8.41216 10.5564L4.69238 6.93639Z" fill="#94DDBC"/>
<path d="M12.5509 14.9069L10.1701 15.4942C9.86607 15.4712 9.55129 15.4435 9.22807 15.4105L5.64648 11.7053L8.35052 10.8193L12.5509 14.9069Z" fill="#94DDBC"/>
<path d="M12.7469 15.0957L13.2813 15.6162C12.753 15.6162 11.9246 15.6032 10.9258 15.5448L12.7469 15.0957Z" fill="#94DDBC"/>
<path d="M9.54793 3.35222L8.59668 2.22592C9.11031 1.96105 9.54639 1.78907 9.84198 1.68235C9.85119 1.2931 9.86117 0.903077 9.87039 0.513825C10.4539 0.314976 11.2792 0.0930945 12.2719 0.0224609L13.7921 2.14684L9.54793 3.35222Z" fill="#94DDBC"/>
<path d="M10.8826 5.29102L13.8308 8.782L11.6004 9.51291L8.47949 5.93056L10.8826 5.29102Z" fill="#94DDBC"/>
<path d="M13.9342 2.34668L15.0735 3.93901L10.9645 5.03152L9.70996 3.54668L13.9342 2.34668Z" fill="#94DDBC"/>
<path d="M12.8151 14.8419L8.59863 10.7382L11.5269 9.7793L15.3856 14.2077L12.8151 14.8419Z" fill="#94DDBC"/>
<path d="M15.5556 14.4033L16.4516 15.4321C14.9637 15.5765 13.9065 15.6095 13.9065 15.6095C13.9065 15.6095 13.8021 15.6125 13.6102 15.6148L13.0098 15.0313L15.5556 14.4033Z" fill="#94DDBC"/>
<path d="M14.0272 2.07992L12.5439 0.00775047C12.8902 -0.0068369 13.2541 -0.0014626 13.6342 0.0292476C15.0322 0.142876 16.2514 0.57589 17.2894 1.15324L14.0272 2.07992Z" fill="#94DDBC"/>
<path d="M14.0663 8.70354L11.1289 5.22484L15.2172 4.1377L17.6456 7.53041L14.0663 8.70354Z" fill="#94DDBC"/>
<path d="M15.6372 14.1464L11.7646 9.70105L13.9911 8.97168L17.8913 13.5897L15.6372 14.1464Z" fill="#94DDBC"/>
<path d="M18.0569 13.7852L19.1541 15.0834C18.3034 15.2232 17.4727 15.326 16.7326 15.4028L15.8066 14.3402L18.0569 13.7852Z" fill="#94DDBC"/>
<path d="M14.1689 2.27931L17.5663 1.31348C18.2987 1.75263 18.9352 2.26012 19.4749 2.76761L15.3114 3.87471L14.1689 2.27931Z" fill="#94DDBC"/>
<path d="M18.1406 13.5279L14.2266 8.89376L17.7859 7.72754L21.3675 12.7318L18.1406 13.5279Z" fill="#94DDBC"/>
<path d="M15.4551 4.07523L19.6685 2.95508C20.9299 4.19654 21.6117 5.39501 21.7038 5.56161C21.8044 5.7451 21.8981 5.92783 21.9841 6.10979L17.875 7.45566L15.4551 4.07523Z" fill="#94DDBC"/>
<path d="M21.512 12.9336L22.5017 14.3163C21.5397 14.6242 20.4686 14.8599 19.4176 15.0403L18.3066 13.7244L21.512 12.9336Z" fill="#94DDBC"/>
<path d="M21.7529 12.8748L25.9027 11.8506C25.8489 12.0302 25.7614 12.2337 25.6224 12.4464C25.1188 13.2141 24.0401 13.7984 22.7311 14.2406L21.7529 12.8748Z" fill="#94DDBC"/>
<path d="M25.9619 11.5986L21.6087 12.6727L18.0156 7.65237L22.0817 6.32031C22.887 8.11609 23.0414 9.80976 23.0383 10.9483C23.2586 10.9491 23.479 10.9499 23.7001 10.9506C23.7101 10.3027 23.7208 9.65391 23.7316 9.00592C24.4855 9.30228 24.9661 9.71456 25.2287 9.97944C25.5588 10.3119 25.9128 10.6681 25.9826 11.194C25.9826 11.194 26.0034 11.3522 25.9619 11.5986Z" fill="#94DDBC"/>
</svg>
