<svg width="107" height="111" viewBox="0 0 107 111" fill="none" xmlns="http://www.w3.org/2000/svg">
<path d="M64.542 55.8484L67.1692 54.9883L71.9612 59.9506H64.542V55.8484Z" fill="#94DDBC"/>
<path d="M64.542 52.2686L66.7947 54.6049L64.542 55.343V52.2686Z" fill="#94DDBC"/>
<path d="M52.4356 59.8145L52.603 59.9507H52.0186L52.4356 59.8145Z" fill="#94DDBC"/>
<path d="M61.1827 56.9492V59.9499H53.3663L52.9805 59.6348L61.1827 56.9492Z" fill="#94DDBC"/>
<path d="M46.4326 54.9199L51.9906 59.4535L50.4699 59.9503H46.4326V54.9199Z" fill="#94DDBC"/>
<path d="M43.0759 52.186V59.9502H29.8008V55.8083L42.866 52.0156L43.0759 52.186Z" fill="#94DDBC"/>
<path d="M35.4212 45.9462L29.8008 47.8369V41.3672L35.4212 45.9462Z" fill="#94DDBC"/>
<path d="M42.412 51.6465L29.8008 55.3086V48.3449L35.861 46.3066L42.412 51.6465Z" fill="#94DDBC"/>
<path d="M36.4033 46.1243L43.0763 43.876V51.4528L42.977 51.4812L36.4033 46.1243Z" fill="#94DDBC"/>
<path d="M46.4326 50.9792L59.6028 47.1553L61.1831 48.7933V56.4411L52.5354 59.2743L46.4326 54.2978V50.9792Z" fill="#94DDBC"/>
<path d="M61.1823 48.1005L60.124 47.0047L61.1823 46.6953V48.1005Z" fill="#94DDBC"/>
<path d="M46.4326 42.7469L53.1567 40.4844L59.2254 46.7639L46.4326 50.4799V42.7469Z" fill="#94DDBC"/>
<path d="M53.6611 40.3135L69.5181 34.9736L75.4846 42.0423L64.5417 45.219V38.1276H61.1825V46.1956L59.7469 46.6129L53.6611 40.3135Z" fill="#94DDBC"/>
<path d="M43.7852 33.4437L29.8008 36.8957V29.5176C32.9132 31.2124 37.1065 32.4615 42.3042 33.2393C42.8035 33.3131 43.2944 33.3812 43.7824 33.4437H43.7852Z" fill="#94DDBC"/>
<path d="M46.4323 42.2393V38.1286H43.0759V43.3691L35.9603 45.7651L29.8008 40.7432V37.3905L45.1442 33.6035C45.6577 33.6603 46.1599 33.7086 46.6536 33.754L52.7819 40.0988L46.4294 42.2393H46.4323Z" fill="#94DDBC"/>
<path d="M67.7141 32.8359L69.1837 34.579L53.2899 39.9274L47.3857 33.8153C50.3534 34.0566 52.8757 34.1049 54.4021 34.1049C55.2362 34.1049 55.7185 34.0907 55.7384 34.0879C55.9512 34.0822 61.0439 33.9147 66.7069 33.0034C67.0473 32.9495 67.3821 32.8927 67.7112 32.8359H67.7141Z" fill="#94DDBC"/>
<path d="M77.9639 31.6208L69.6737 34.4142L68.2607 32.7393C72.4115 31.9756 75.6544 30.965 77.9639 29.7188V31.6208Z" fill="#94DDBC"/>
<path d="M75.9924 41.8974L70.0088 34.8089L77.9642 32.1318V41.3212L75.9924 41.8974Z" fill="#94DDBC"/>
<path d="M77.9643 44.2344L76.3301 42.2983L77.9643 41.8242V44.2344Z" fill="#94DDBC"/>
<path d="M64.542 45.7223L75.8254 42.4463L77.9647 44.9814V50.9458L67.3054 54.4375L64.542 51.576V45.7223Z" fill="#94DDBC"/>
<path d="M72.6333 59.9507L67.6768 54.8238L77.9643 51.4541V59.9507H72.6333Z" fill="#94DDBC"/>
<path d="M74.1431 29.8219L72.0918 26.9547L80.7991 24.8057C80.6856 25.1832 80.504 25.6119 80.2118 26.0604C79.1564 27.6729 76.8895 28.8964 74.1431 29.8247V29.8219Z" fill="#94DDBC"/>
<path d="M61.5872 32.251L59.6494 30.0253L64.3591 28.8643L66.6572 31.5867C64.8755 31.8763 63.1363 32.092 61.59 32.251H61.5872Z" fill="#94DDBC"/>
<path d="M53.7969 31.4687L59.1251 30.1543L61.0005 32.309C57.8994 32.6099 55.6949 32.678 55.6949 32.678C55.6949 32.678 55.468 32.6837 55.0509 32.6894L53.7969 31.4687Z" fill="#94DDBC"/>
<path d="M53.2442 31.6045L54.362 32.6946C53.2527 32.6946 51.522 32.6662 49.4424 32.5441L53.2442 31.6045Z" fill="#94DDBC"/>
<path d="M29.1172 27.456L37.8273 24.6172L45.1359 32.1827C39.6771 31.5723 33.302 30.2608 29.1172 27.456Z" fill="#94DDBC"/>
<path d="M38.3379 24.4507L44.0009 22.6055L52.8387 31.21L47.8623 32.4392C47.2239 32.3909 46.56 32.3313 45.8819 32.2632L38.3379 24.4536V24.4507Z" fill="#94DDBC"/>
<path d="M44.5205 22.435L50.6601 20.4336L58.7688 29.745L53.3895 31.0736L44.5205 22.435Z" fill="#94DDBC"/>
<path d="M51.1592 20.2717L55.8235 18.7529L64.0116 28.4504L59.2962 29.6172L51.1592 20.2717Z" fill="#94DDBC"/>
<path d="M56.3193 18.5882L63.7754 16.1582L71.2854 26.6562L64.5329 28.3226L56.3193 18.5882Z" fill="#94DDBC"/>
<path d="M46.0402 7.16401L40.9929 8.60046L40.1758 7.66365C41.5518 6.45714 42.925 5.56007 44.1308 4.9043L46.0402 7.16685V7.16401Z" fill="#94DDBC"/>
<path d="M39.8181 7.98535L40.4792 8.74616L38.4932 9.31109C38.9301 8.83416 39.3727 8.39414 39.8181 7.98535Z" fill="#94DDBC"/>
<path d="M48.9994 10.6702L43.9634 12.0102L41.3447 9.001L46.3835 7.56738L48.9994 10.6702Z" fill="#94DDBC"/>
<path d="M35.9889 14.1316L35.4385 13.595C35.9492 12.6554 36.5592 11.6987 37.2855 10.7505C37.4898 10.4865 37.694 10.231 37.904 9.98119L40.8319 9.14941L43.445 12.1501L35.9889 14.1316Z" fill="#94DDBC"/>
<path d="M35.4473 14.2757L35.0303 14.3864C35.087 14.27 35.1438 14.1564 35.2033 14.04L35.4445 14.2757H35.4473Z" fill="#94DDBC"/>
<path d="M34.584 20.5642L34.2379 20.8992L37.4552 24.232L28.87 27.0311L28.9778 27.3604C28.8501 27.2752 28.7253 27.1872 28.6033 27.0964C27.4968 26.2845 26.691 25.3562 26.6087 24.2405C26.3959 21.4045 30.9865 19.1448 31.5624 18.8694C31.5426 20.2605 31.5227 21.6543 31.5 23.0482H32.8136C32.876 21.6572 33.1484 18.5118 34.7628 14.9575L35.8522 14.668L43.6119 22.225L37.9659 24.0645L34.584 20.5642Z" fill="#94DDBC"/>
<path d="M44.1277 22.0543L36.3936 14.5229L43.7957 12.5527L50.3156 20.0387L44.1277 22.0543Z" fill="#94DDBC"/>
<path d="M50.8126 19.8775L44.3154 12.4171L49.3429 11.0771L55.4882 18.3531L50.8126 19.8775Z" fill="#94DDBC"/>
<path d="M58.1155 8.24579L49.5188 10.5311L46.8916 7.42253L55.7294 4.91016L58.1155 8.24579Z" fill="#94DDBC"/>
<path d="M55.4319 4.49631L46.5515 7.02004L44.5684 4.66948C45.6522 4.11023 46.5714 3.74686 47.1927 3.52259C47.2126 2.70784 47.2325 1.89026 47.2523 1.07551C48.4695 0.66104 50.186 0.19831 52.2543 0.0478516L55.4347 4.49347L55.4319 4.49631Z" fill="#94DDBC"/>
<path d="M55.9821 18.1931L49.8623 10.9398L58.4135 8.66309L63.4836 15.746L55.9821 18.1931Z" fill="#94DDBC"/>
<path d="M67.3424 5.79119L58.6124 8.11336L56.2207 4.77205L63.3448 2.74512C64.8797 3.6649 66.2104 4.72663 67.3396 5.78835L67.3424 5.79119Z" fill="#94DDBC"/>
<path d="M55.9242 4.35425L52.8203 0.0165044C53.5523 -0.0147228 54.3212 -0.00620626 55.1269 0.059087C58.0492 0.297549 60.597 1.2003 62.7674 2.40964L55.9242 4.35425Z" fill="#94DDBC"/>
<path d="M63.9633 15.5904L58.9131 8.53024L67.748 6.17969C70.3894 8.7829 71.8194 11.2924 72.0123 11.6416C72.2223 12.022 72.4152 12.3996 72.5911 12.7771L63.9633 15.5904Z" fill="#94DDBC"/>
<path d="M80.9234 24.278L71.7905 26.532L64.2578 16.0028L72.7949 13.2207C74.4858 16.985 74.8121 20.5364 74.8036 22.921C75.266 22.921 75.7285 22.9239 76.1881 22.9267C76.2108 21.5697 76.2335 20.2128 76.2562 18.8558C77.8308 19.4775 78.838 20.3405 79.3884 20.8941C80.0779 21.5896 80.8212 22.3362 80.9631 23.4377C80.9631 23.4377 81.0056 23.767 80.9205 24.2808L80.9234 24.278Z" fill="#94DDBC"/>
<path d="M67.2092 31.4906L64.8799 28.7312L71.587 27.0762L73.6638 29.9775C71.6522 30.619 69.408 31.113 67.2092 31.4906Z" fill="#94DDBC"/>
<path d="M0.790039 84.7932V66.6445H5.43733C9.42923 66.6445 11.4748 68.3138 11.4748 72.0525C11.4748 75.7913 9.37816 77.5882 5.43733 77.5882H3.7946V84.7904H0.790039V84.7932ZM5.565 74.9339C7.02898 74.9339 8.39366 74.2753 8.39366 72.0525C8.39366 70.1051 7.38363 69.3727 5.61607 69.3727H3.79744V74.9339H5.565Z" fill="#94DDBC"/>
<path d="M15.774 66.6445H13.0957V84.7932H15.774V66.6445Z" fill="#94DDBC"/>
<path d="M24.0608 84.7948L23.9076 83.4038C22.872 84.4655 21.7116 85.0219 20.347 85.0219C18.5028 85.0219 17.3906 83.7586 17.3906 81.5585C17.3906 80.0682 17.9212 78.9298 19.056 78.0952C20.0661 77.3116 21.7343 76.7552 23.7799 76.1477C23.9303 74.4302 23.553 73.5956 22.2138 73.5956C21.1016 73.5956 20.4718 74.2514 20.0916 75.4153L17.9183 74.8844C18.5 72.761 19.788 71.3955 22.3642 71.3955C25.2184 71.3955 26.4072 72.761 26.4072 75.5402V82.3137L26.6086 84.792H24.058L24.0608 84.7948ZM23.709 78.0441C22.2706 78.45 21.4591 78.7765 20.8803 79.2562C20.3498 79.6849 20.1484 80.3691 20.1484 81.1526C20.1484 82.1377 20.5796 82.7707 21.4364 82.7707C22.2933 82.7707 23.1302 82.291 23.709 81.5074V78.0441Z" fill="#94DDBC"/>
<path d="M34.8952 84.794V75.9738C34.8952 74.5345 34.4639 73.9525 33.5305 73.9525C32.8241 73.9525 32.1403 74.3301 31.3345 75.2669V84.7969H28.6562V71.653H31.2579V73.2201C32.3446 72.0079 33.3546 71.4004 34.6937 71.4004C35.8059 71.4004 36.6145 71.8291 37.0174 72.587C37.4458 73.2683 37.5479 74.2307 37.5479 75.67V84.794H34.8952Z" fill="#94DDBC"/>
<path d="M43.9952 85.0201C40.8375 85.0201 39.2969 82.9222 39.2969 78.1444C39.2969 73.8975 40.9396 71.3965 44.0463 71.3965C47.4566 71.3965 48.6454 74.1019 48.6454 77.4631C48.6454 77.8406 48.6454 78.2721 48.6198 78.7519H41.8759C41.978 81.5056 42.5596 82.7973 44.1257 82.7973C45.3372 82.7973 45.9954 81.9626 46.3728 80.5972L48.6227 81.0514C47.9162 83.8306 46.3728 85.0201 44.0009 85.0201M41.8986 76.8045H46.0664C46.0664 74.857 45.4592 73.5426 44.0463 73.5426C42.7327 73.5426 42.0773 74.7037 41.8986 76.8045Z" fill="#94DDBC"/>
<path d="M56.2911 84.7176C55.6357 84.8425 54.9775 84.9192 54.22 84.9192C52.0496 84.9192 51.2381 84.1101 51.2381 81.6091V73.9017H49.4961V71.6533H51.2381V67.3809H53.8909V71.6533H56.2911V73.9017H53.8909V81.1549C53.8909 82.0917 54.2455 82.4693 55.0286 82.4693C55.4343 82.4693 55.8627 82.4182 56.2911 82.2933V84.7205V84.7176Z" fill="#94DDBC"/>
<path d="M64.0862 84.7948L63.933 83.4038C62.8974 84.4655 61.737 85.0219 60.3723 85.0219C58.5282 85.0219 57.416 83.7586 57.416 81.5585C57.416 80.0682 57.9466 78.9298 59.0814 78.0952C60.0915 77.3116 61.7597 76.7552 63.8053 76.1477C63.9557 74.4302 63.5784 73.5956 62.2392 73.5956C61.127 73.5956 60.4972 74.2514 60.117 75.4153L57.9437 74.8844C58.5253 72.761 59.8134 71.3955 62.3896 71.3955C65.2438 71.3955 66.4325 72.761 66.4325 75.5402V82.3137L66.634 84.792H64.0834L64.0862 84.7948ZM63.7344 78.0441C62.296 78.45 61.4845 78.7765 60.9057 79.2562C60.3752 79.6849 60.1737 80.3691 60.1737 81.1526C60.1737 82.1377 60.605 82.7707 61.4618 82.7707C62.3187 82.7707 63.1556 82.291 63.7344 81.5074V78.0441Z" fill="#94DDBC"/>
<path d="M68.6835 84.793V71.6491H71.2852V73.8237C72.1449 72.2566 73.0017 71.3965 74.3919 71.3965C74.5167 71.3965 74.6444 71.422 74.8203 71.4476V74.2041C74.6189 74.1785 74.4174 74.153 74.2898 74.153C73.0017 74.153 72.0682 74.9365 71.359 76.4014V84.793H68.6807H68.6835Z" fill="#94DDBC"/>
<path d="M76.1055 66.5205H78.8831V69.5041H76.1055V66.5205ZM76.1565 71.6503H78.8348V84.7941H76.1565V71.6503Z" fill="#94DDBC"/>
<path d="M87.3634 84.7942V83.2272C86.2512 84.4394 85.2412 85.0213 83.902 85.0213C82.7927 85.0213 82.0323 84.6182 81.6039 83.8602C81.1755 83.1789 81.0479 82.2165 81.0479 80.7773V71.6532H83.7772V80.4735C83.7772 81.9156 84.1319 82.4947 85.1164 82.4947C85.7973 82.4947 86.481 82.1143 87.2641 81.1804V71.6504H89.9679V84.7942H87.3662H87.3634Z" fill="#94DDBC"/>
<path d="M104.131 84.793V75.8705C104.131 74.4057 103.601 73.9486 102.894 73.9486C102.188 73.9486 101.53 74.3773 100.874 75.1863V84.7901H98.1961V75.9698C98.1961 74.5788 97.8925 73.9486 97.0102 73.9486C96.3037 73.9486 95.5689 74.4795 94.939 75.2885V84.793H92.2607V71.6491H94.8624V73.1906C95.8469 72.0523 96.9336 71.3965 98.1706 71.3965C99.4842 71.3965 100.242 72.0551 100.596 73.1906C101.657 72.004 102.667 71.3965 103.981 71.3965C106.078 71.3965 106.784 72.9891 106.784 75.4418V84.793H104.131Z" fill="#94DDBC"/>
<path d="M23.791 110.772V92.626H33.2133V95.3541H26.7984V100.081H31.5734V102.71H26.7984V110.772H23.791Z" fill="#94DDBC"/>
<path d="M33.8349 110.772V97.6286H36.4366V99.8032C37.2962 98.2361 38.153 97.376 39.5433 97.376C39.6681 97.376 39.7958 97.4015 39.9717 97.4271V100.184C39.7702 100.158 39.5688 100.132 39.4411 100.132C38.153 100.132 37.2196 100.916 36.5103 102.381V110.772H33.832H33.8349Z" fill="#94DDBC"/>
<path d="M41.2568 92.498H44.0344V95.4817H41.2568V92.498ZM41.3079 97.6307H43.9862V110.774H41.3079V97.6307Z" fill="#94DDBC"/>
<path d="M52.1632 110.699C51.5078 110.824 50.8496 110.901 50.0921 110.901C47.9216 110.901 47.1102 110.092 47.1102 107.591V99.8831H45.3682V97.6348H47.1102V93.3623H49.7629V97.6348H52.1632V99.8831H49.7629V107.136C49.7629 108.073 50.1176 108.451 50.9006 108.451C51.3064 108.451 51.7348 108.4 52.1632 108.275V110.702V110.699Z" fill="#94DDBC"/>
<path d="M53.2041 110.773V108.752L58.3564 99.8802H53.6836V97.6318H61.5397V99.6786L56.3846 108.524H61.6901V110.773H53.2041Z" fill="#94DDBC"/>
<path d="M65.8941 92.626H63.2158V110.775H65.8941V92.626Z" fill="#94DDBC"/>
<path d="M74.1848 110.772L74.0316 109.381C72.9961 110.443 71.8357 110.999 70.471 110.999C68.6268 110.999 67.5146 109.736 67.5146 107.536C67.5146 106.046 68.0452 104.907 69.1801 104.073C70.1901 103.289 71.8584 102.733 73.904 102.125C74.0543 100.408 73.677 99.5731 72.3378 99.5731C71.2257 99.5731 70.5958 100.229 70.2156 101.393L68.0424 100.862C68.624 98.7385 69.9121 97.373 72.4882 97.373C75.3424 97.373 76.5312 98.7385 76.5312 101.518V108.291L76.7326 110.77H74.182L74.1848 110.772ZM73.833 104.024C72.3946 104.43 71.5832 104.757 71.0044 105.237C70.4738 105.665 70.2724 106.349 70.2724 107.133C70.2724 108.118 70.7036 108.751 71.5605 108.751C72.4173 108.751 73.2543 108.271 73.833 107.488V104.024Z" fill="#94DDBC"/>
<path d="M78.7812 110.772V97.6286H81.3828V99.8032C82.2425 98.2361 83.1022 97.376 84.4895 97.376C84.6144 97.376 84.742 97.4015 84.918 97.4271V100.184C84.7165 100.158 84.5151 100.132 84.3874 100.132C83.0993 100.132 82.1659 100.916 81.4566 102.381V110.772H78.7783H78.7812Z" fill="#94DDBC"/>
</svg>
