<svg width="77" height="23" viewBox="0 0 77 23" fill="none" xmlns="http://www.w3.org/2000/svg">
<path d="M13.9795 20.5787L14.9475 20.2617L16.7131 22.0901H13.9795V20.5787Z" fill="#111144"/>
<path d="M13.9795 19.2598L14.8095 20.1206L13.9795 20.3926V19.2598Z" fill="#111144"/>
<path d="M9.5189 22.0391L9.58058 22.0893H9.36523L9.5189 22.0391Z" fill="#111144"/>
<path d="M12.7419 20.9824V22.088H9.8619L9.71973 21.9719L12.7419 20.9824Z" fill="#111144"/>
<path d="M7.30566 20.2344L9.35354 21.9048L8.79322 22.0879H7.30566V20.2344Z" fill="#111144"/>
<path d="M6.06999 19.2268V22.0876H1.17871V20.5615L5.99263 19.1641L6.06999 19.2268Z" fill="#111144"/>
<path d="M3.24959 16.9294L1.17871 17.626V15.2422L3.24959 16.9294Z" fill="#111144"/>
<path d="M5.82537 19.03L1.17871 20.3793V17.8135L3.41162 17.0625L5.82537 19.03Z" fill="#111144"/>
<path d="M3.61133 16.9944L6.07003 16.166V18.9577L6.03345 18.9682L3.61133 16.9944Z" fill="#111144"/>
<path d="M7.30566 18.7839L12.1583 17.375L12.7405 17.9785V20.7964L9.55425 21.8403L7.30566 20.0067V18.7839Z" fill="#111144"/>
<path d="M12.7405 17.7248L12.3506 17.321L12.7405 17.207V17.7248Z" fill="#111144"/>
<path d="M7.30566 15.7497L9.78319 14.916L12.0192 17.2297L7.30566 18.5989V15.7497Z" fill="#111144"/>
<path d="M9.96973 14.8542L15.8123 12.8867L18.0107 15.4912L13.9787 16.6617V14.0488H12.741V17.0215L12.212 17.1752L9.96973 14.8542Z" fill="#111144"/>
<path d="M6.33133 12.3235L1.17871 13.5955V10.877C2.32548 11.5014 3.87054 11.9616 5.78565 12.2482C5.96964 12.2754 6.15048 12.3005 6.33029 12.3235H6.33133Z" fill="#111144"/>
<path d="M7.30666 15.5627V14.0482H6.06999V15.979L3.44821 16.8618L1.17871 15.0115V13.7762L6.83206 12.3809C7.02128 12.4018 7.20631 12.4196 7.3882 12.4363L9.6462 14.7741L7.30562 15.5627H7.30666Z" fill="#111144"/>
<path d="M15.1483 12.0996L15.6898 12.7418L9.83361 14.7125L7.6582 12.4605C8.75166 12.5494 9.68099 12.5672 10.2434 12.5672C10.5507 12.5672 10.7285 12.5619 10.7358 12.5609C10.8142 12.5588 12.6906 12.4971 14.7772 12.1613C14.9026 12.1414 15.026 12.1205 15.1472 12.0996H15.1483Z" fill="#111144"/>
<path d="M18.9248 11.652L15.8702 12.6812L15.3496 12.0641C16.879 11.7827 18.0738 11.4104 18.9248 10.9512V11.652Z" fill="#111144"/>
<path d="M18.1988 15.438L15.9941 12.8262L18.9254 11.8398V15.2257L18.1988 15.438Z" fill="#111144"/>
<path d="M18.9244 16.2982L18.3223 15.5848L18.9244 15.4102V16.2982Z" fill="#111144"/>
<path d="M13.9795 16.8477L18.1369 15.6406L18.9251 16.5747V18.7723L14.9977 20.0589L13.9795 19.0045V16.8477Z" fill="#111144"/>
<path d="M16.96 22.0877L15.1338 20.1986L18.9243 18.957V22.0877H16.96Z" fill="#111144"/>
<path d="M17.5165 10.9889L16.7607 9.93243L19.969 9.14062C19.9272 9.27974 19.8603 9.43768 19.7526 9.60295C19.3637 10.1971 18.5285 10.6479 17.5165 10.9899V10.9889Z" fill="#111144"/>
<path d="M12.8898 11.8826L12.1758 11.0626L13.9111 10.6348L14.7578 11.6379C14.1013 11.7446 13.4605 11.824 12.8908 11.8826H12.8898Z" fill="#111144"/>
<path d="M10.0195 11.5956L11.9827 11.1113L12.6737 11.9052C11.5311 12.0161 10.7189 12.0412 10.7189 12.0412C10.7189 12.0412 10.6353 12.0433 10.4816 12.0454L10.0195 11.5956Z" fill="#111144"/>
<path d="M9.81583 11.6445L10.2277 12.0462C9.81897 12.0462 9.18129 12.0357 8.41504 11.9908L9.81583 11.6445Z" fill="#111144"/>
<path d="M0.926758 10.1163L4.13604 9.07031L6.82891 11.8579C4.81762 11.633 2.46868 11.1497 0.926758 10.1163Z" fill="#111144"/>
<path d="M4.32422 9.00997L6.41078 8.33008L9.6671 11.5005L7.83352 11.9534C7.59831 11.9356 7.3537 11.9136 7.10385 11.8885L4.32422 9.01101V9.00997Z" fill="#111144"/>
<path d="M6.60254 8.26671L8.86472 7.5293L11.8524 10.9601L9.87036 11.4496L6.60254 8.26671Z" fill="#111144"/>
<path d="M9.04785 7.4678L10.7664 6.9082L13.7834 10.4813L12.046 10.9112L9.04785 7.4678Z" fill="#111144"/>
<path d="M10.9492 6.84849L13.6964 5.95312L16.4635 9.82117L13.9756 10.4352L10.9492 6.84849Z" fill="#111144"/>
<path d="M7.16175 2.6412L5.30204 3.17046L5.00098 2.82529C5.50798 2.38075 6.01394 2.05022 6.45822 1.80859L7.16175 2.64224V2.6412Z" fill="#111144"/>
<path d="M4.86905 2.94141L5.11262 3.22173L4.38086 3.42988C4.54185 3.25415 4.70492 3.09203 4.86905 2.94141Z" fill="#111144"/>
<path d="M8.25302 3.93037L6.39749 4.42407L5.43262 3.31533L7.28919 2.78711L8.25302 3.93037Z" fill="#111144"/>
<path d="M3.45866 5.20679L3.25586 5.0091C3.44403 4.66288 3.66878 4.31039 3.93639 3.96103C4.01166 3.86375 4.08693 3.76961 4.16428 3.67757L5.24311 3.37109L6.20589 4.4767L3.45866 5.20679Z" fill="#111144"/>
<path d="M3.25914 5.26064L3.10547 5.30144C3.12638 5.25855 3.14728 5.21671 3.16924 5.17383L3.25809 5.26064H3.25914Z" fill="#111144"/>
<path d="M2.94117 7.5768L2.81364 7.70023L3.99908 8.92821L0.8358 9.95955L0.875524 10.0809C0.828482 10.0495 0.782486 10.0171 0.737535 9.98361C0.329842 9.68446 0.032957 9.34242 0.00264136 8.93135C-0.0757613 7.88641 1.61564 7.05381 1.82785 6.95235C1.82054 7.46488 1.81322 7.97846 1.80486 8.49204H2.28886C2.31186 7.97951 2.41222 6.82056 3.00703 5.51099L3.40845 5.4043L6.26753 8.1887L4.18725 8.8665L2.94117 7.5768Z" fill="#111144"/>
<path d="M6.45807 8.12786L3.6084 5.35286L6.33577 4.62695L8.73802 7.38521L6.45807 8.12786Z" fill="#111144"/>
<path d="M8.92124 7.32262L6.52734 4.57378L8.37974 4.08008L10.644 6.76093L8.92124 7.32262Z" fill="#111144"/>
<path d="M11.6111 3.03958L8.4436 3.88159L7.47559 2.73624L10.7319 1.81055L11.6111 3.03958Z" fill="#111144"/>
<path d="M10.6219 1.65663L7.34985 2.58651L6.61914 1.72044C7.01847 1.51438 7.35717 1.38049 7.58611 1.29786C7.59342 0.997664 7.60074 0.696421 7.60806 0.396224C8.05652 0.24351 8.68897 0.0730152 9.45104 0.0175781L10.6229 1.65559L10.6219 1.65663Z" fill="#111144"/>
<path d="M10.8252 6.70277L8.57031 4.03028L11.7211 3.19141L13.5891 5.80113L10.8252 6.70277Z" fill="#111144"/>
<path d="M15.0109 2.13406L11.7943 2.98967L10.9131 1.75855L13.538 1.01172C14.1036 1.35062 14.5938 1.74181 15.0099 2.13301L15.0109 2.13406Z" fill="#111144"/>
<path d="M10.8048 1.6047L9.66113 0.00644096C9.93084 -0.00506485 10.2141 -0.0019269 10.511 0.0221307C11.5877 0.109993 12.5265 0.442616 13.3262 0.888204L10.8048 1.6047Z" fill="#111144"/>
<path d="M13.7651 5.74478L11.9043 3.14342L15.1596 2.27734C16.1328 3.23651 16.6597 4.16116 16.7308 4.28981C16.8081 4.42998 16.8792 4.56909 16.944 4.70821L13.7651 5.74478Z" fill="#111144"/>
<path d="M20.0145 8.94519L16.6495 9.7757L13.874 5.89616L17.0195 4.87109C17.6426 6.25807 17.7628 7.56659 17.7597 8.44522C17.9301 8.44522 18.1004 8.44626 18.2698 8.44731C18.2782 7.94733 18.2865 7.44735 18.2949 6.94737C18.8751 7.17644 19.2462 7.49442 19.449 7.69838C19.703 7.95465 19.9769 8.22974 20.0292 8.63558C20.0292 8.63558 20.0448 8.75692 20.0135 8.94624L20.0145 8.94519Z" fill="#111144"/>
<path d="M14.9618 11.6031L14.1035 10.5864L16.5748 9.97656L17.34 11.0456C16.5988 11.2819 15.7719 11.4639 14.9618 11.6031Z" fill="#111144"/>
<path d="M26.2383 9.82852V1.13672H28.464C30.3758 1.13672 31.3555 1.93615 31.3555 3.72672C31.3555 5.51729 30.3513 6.3779 28.464 6.3779H27.6772V9.82716H26.2383V9.82852ZM28.5251 5.10669C29.2262 5.10669 29.8798 4.79127 29.8798 3.72672C29.8798 2.79405 29.3961 2.44328 28.5496 2.44328H27.6786V5.10669H28.5251Z" fill="#111144"/>
<path d="M33.4145 1.13672H32.1318V9.82852H33.4145V1.13672Z" fill="#111144"/>
<path d="M37.382 9.82543L37.3086 9.15923C36.8127 9.66772 36.2569 9.93419 35.6034 9.93419C34.7201 9.93419 34.1875 9.32918 34.1875 8.2755C34.1875 7.56172 34.4416 7.01653 34.9851 6.61681C35.4688 6.24157 36.2678 5.97509 37.2475 5.68414C37.3195 4.8616 37.1388 4.46188 36.4974 4.46188C35.9648 4.46188 35.6631 4.77594 35.4811 5.33337L34.4402 5.07913C34.7188 4.06216 35.3357 3.4082 36.5694 3.4082C37.9364 3.4082 38.5057 4.06216 38.5057 5.39319V8.63715L38.6022 9.82407H37.3806L37.382 9.82543ZM37.2135 6.59234C36.5246 6.78676 36.136 6.94311 35.8588 7.17288C35.6047 7.37818 35.5082 7.70584 35.5082 8.08108C35.5082 8.55286 35.7148 8.85604 36.1251 8.85604C36.5355 8.85604 36.9363 8.62627 37.2135 8.25103V6.59234Z" fill="#111144"/>
<path d="M42.5719 9.82661V5.60239C42.5719 4.91309 42.3654 4.63437 41.9184 4.63437C41.58 4.63437 41.2526 4.8152 40.8667 5.26386V9.82798H39.584V3.53311H40.83V4.2836C41.3504 3.70306 41.8341 3.41211 42.4755 3.41211C43.0081 3.41211 43.3954 3.61741 43.5883 3.98042C43.7935 4.30671 43.8424 4.76761 43.8424 5.45692V9.82661H42.5719Z" fill="#111144"/>
<path d="M46.9308 9.93674C45.4185 9.93674 44.6807 8.93201 44.6807 6.64383C44.6807 4.6099 45.4674 3.41211 46.9553 3.41211C48.5885 3.41211 49.1579 4.70779 49.1579 6.31753C49.1579 6.49836 49.1579 6.70502 49.1456 6.93478H45.9158C45.9647 8.25358 46.2433 8.87219 46.9933 8.87219C47.5735 8.87219 47.8888 8.47247 48.0695 7.81851L49.147 8.03605C48.8086 9.36708 48.0695 9.93674 46.9335 9.93674M45.9267 6.00211H47.9227C47.9227 5.06944 47.6319 4.43995 46.9553 4.43995C46.3262 4.43995 46.0123 4.99602 45.9267 6.00211Z" fill="#111144"/>
<path d="M52.8187 9.79124C52.5049 9.85107 52.1896 9.88777 51.8268 9.88777C50.7874 9.88777 50.3987 9.50029 50.3987 8.3025V4.61124H49.5645V3.53445H50.3987V1.48828H51.6692V3.53445H52.8187V4.61124H51.6692V8.08497C51.6692 8.53363 51.8391 8.71445 52.2141 8.71445C52.4084 8.71445 52.6136 8.68998 52.8187 8.63016V9.7926V9.79124Z" fill="#111144"/>
<path d="M56.5519 9.82543L56.4785 9.15923C55.9826 9.66772 55.4268 9.93419 54.7733 9.93419C53.8901 9.93419 53.3574 9.32918 53.3574 8.2755C53.3574 7.56172 53.6115 7.01653 54.155 6.61681C54.6388 6.24157 55.4377 5.97509 56.4174 5.68414C56.4894 4.8616 56.3087 4.46188 55.6674 4.46188C55.1347 4.46188 54.8331 4.77594 54.651 5.33337L53.6102 5.07913C53.8887 4.06216 54.5056 3.4082 55.7394 3.4082C57.1063 3.4082 57.6756 4.06216 57.6756 5.39319V8.63715L57.7721 9.82407H56.5506L56.5519 9.82543ZM56.3834 6.59234C55.6945 6.78676 55.3059 6.94311 55.0287 7.17288C54.7746 7.37818 54.6782 7.70584 54.6782 8.08108C54.6782 8.55286 54.8847 8.85604 55.295 8.85604C55.7054 8.85604 56.1062 8.62627 56.3834 8.25103V6.59234Z" fill="#111144"/>
<path d="M58.7533 9.82797V3.53311H59.9993V4.57455C60.411 3.82406 60.8214 3.41211 61.4872 3.41211C61.547 3.41211 61.6081 3.42434 61.6924 3.43658V4.75674C61.5959 4.7445 61.4994 4.73226 61.4383 4.73226C60.8214 4.73226 60.3743 5.10751 60.0346 5.80905V9.82797H58.752H58.7533Z" fill="#111144"/>
<path d="M62.3086 1.07617H63.6388V2.50509H62.3086V1.07617ZM62.3331 3.53293H63.6157V9.8278H62.3331V3.53293Z" fill="#111144"/>
<path d="M67.6995 9.82806V9.07758C67.1668 9.65812 66.6831 9.93683 66.0417 9.93683C65.5105 9.93683 65.1463 9.74377 64.9411 9.38076C64.7359 9.05446 64.6748 8.59356 64.6748 7.90426V3.53456H65.982V7.75878C65.982 8.44945 66.1518 8.7268 66.6233 8.7268C66.9494 8.7268 67.2769 8.54462 67.6519 8.09732V3.5332H68.9468V9.82806H67.7008H67.6995Z" fill="#111144"/>
<path d="M75.731 9.82797V5.55481C75.731 4.85327 75.477 4.63437 75.1386 4.63437C74.8003 4.63437 74.485 4.83967 74.1712 5.22715V9.82661H72.8885V5.60239C72.8885 4.9362 72.7431 4.63437 72.3205 4.63437C71.9822 4.63437 71.6302 4.88861 71.3286 5.27609V9.82797H70.0459V3.53311H71.2919V4.27137C71.7634 3.72617 72.2838 3.41211 72.8762 3.41211C73.5054 3.41211 73.8682 3.72753 74.038 4.27137C74.5462 3.70306 75.0299 3.41211 75.659 3.41211C76.6632 3.41211 77.0015 4.17483 77.0015 5.34951V9.82797H75.731Z" fill="#111144"/>
<path d="M26.2383 22.2705V13.5801H30.7508V14.8866H27.6786V17.1503H29.9654V18.4093H27.6786V22.2705H26.2383Z" fill="#111144"/>
<path d="M31.0482 22.2694V15.9745H32.2942V17.016C32.7059 16.2655 33.1163 15.8535 33.7821 15.8535C33.8419 15.8535 33.903 15.8658 33.9873 15.878V17.1981C33.8908 17.1859 33.7943 17.1737 33.7332 17.1737C33.1163 17.1737 32.6693 17.5489 32.3296 18.2505V22.2694H31.0469H31.0482Z" fill="#111144"/>
<path d="M34.6025 13.5176H35.9328V14.9465H34.6025V13.5176ZM34.627 15.9757H35.9097V22.2706H34.627V15.9757Z" fill="#111144"/>
<path d="M39.8266 22.2326C39.5127 22.2925 39.1974 22.3292 38.8346 22.3292C37.7952 22.3292 37.4066 21.9417 37.4066 20.7439V17.0526H36.5723V15.9759H37.4066V13.9297H38.677V15.9759H39.8266V17.0526H38.677V20.5264C38.677 20.975 38.8469 21.1559 39.2219 21.1559C39.4162 21.1559 39.6214 21.1314 39.8266 21.0716V22.234V22.2326Z" fill="#111144"/>
<path d="M40.3242 22.2701V21.302L42.7918 17.0533H40.5539V15.9766H44.3163V16.9568L41.8474 21.1933H44.3883V22.2701H40.3242Z" fill="#111144"/>
<path d="M46.4038 13.5801H45.1211V22.2719H46.4038V13.5801Z" fill="#111144"/>
<path d="M50.3732 22.2707L50.2998 21.6045C49.8039 22.113 49.2481 22.3795 48.5946 22.3795C47.7114 22.3795 47.1787 21.7745 47.1787 20.7208C47.1787 20.007 47.4328 19.4618 47.9763 19.0621C48.46 18.6869 49.259 18.4204 50.2387 18.1295C50.3107 17.3069 50.13 16.9072 49.4886 16.9072C48.956 16.9072 48.6544 17.2213 48.4723 17.7787L47.4314 17.5244C47.71 16.5075 48.3269 15.8535 49.5607 15.8535C50.9276 15.8535 51.4969 16.5075 51.4969 17.8385V21.0825L51.5934 22.2694H50.3719L50.3732 22.2707ZM50.2047 19.039C49.5158 19.2334 49.1272 19.3898 48.85 19.6196C48.5959 19.8249 48.4994 20.1525 48.4994 20.5278C48.4994 20.9995 48.706 21.3027 49.1163 21.3027C49.5267 21.3027 49.9275 21.0729 50.2047 20.6977V19.039Z" fill="#111144"/>
<path d="M52.5736 22.2694V15.9745H53.8196V17.016C54.2313 16.2655 54.6431 15.8535 55.3075 15.8535C55.3673 15.8535 55.4284 15.8658 55.5127 15.878V17.1981C55.4162 17.1859 55.3197 17.1737 55.2586 17.1737C54.6417 17.1737 54.1947 17.5489 53.855 18.2505V22.2694H52.5723H52.5736Z" fill="#111144"/>
</svg>
