<svg width="100" height="29" viewBox="0 0 100 29" fill="none" xmlns="http://www.w3.org/2000/svg">
<path d="M18.1152 26.6666L19.3697 26.2559L21.6577 28.6252H18.1152V26.6666Z" fill="#94DDBC"/>
<path d="M18.1152 24.957L19.1909 26.0726L18.1152 26.425V24.957Z" fill="#94DDBC"/>
<path d="M12.3359 28.5605L12.4158 28.6256H12.1367L12.3359 28.5605Z" fill="#94DDBC"/>
<path d="M16.5121 27.1924V28.6251H12.7799L12.5957 28.4747L16.5121 27.1924Z" fill="#94DDBC"/>
<path d="M9.46777 26.2236L12.1216 28.3883L11.3955 28.6255H9.46777V26.2236Z" fill="#94DDBC"/>
<path d="M7.86592 24.9182V28.6255H1.52734V26.6478L7.76568 24.8369L7.86592 24.9182Z" fill="#94DDBC"/>
<path d="M4.21098 21.9393L1.52734 22.8421V19.7529L4.21098 21.9393Z" fill="#94DDBC"/>
<path d="M7.54893 24.66L1.52734 26.4086V23.0836L4.42096 22.1104L7.54893 24.66Z" fill="#94DDBC"/>
<path d="M4.67969 22.0237L7.86591 20.9502V24.568L7.8185 24.5815L4.67969 22.0237Z" fill="#94DDBC"/>
<path d="M9.46777 24.3424L15.7562 22.5166L16.5108 23.2987V26.9504L12.3817 28.3032L9.46777 25.927V24.3424Z" fill="#94DDBC"/>
<path d="M16.5112 22.9678L16.0059 22.4446L16.5112 22.2969V22.9678Z" fill="#94DDBC"/>
<path d="M9.46777 20.4104L12.6784 19.3301L15.5761 22.3284L9.46777 24.1027V20.4104Z" fill="#94DDBC"/>
<path d="M12.9199 19.2489L20.4913 16.6992L23.3402 20.0744L18.1151 21.5912V18.2052H16.5112V22.0574L15.8257 22.2567L12.9199 19.2489Z" fill="#94DDBC"/>
<path d="M8.2046 15.9684L1.52734 17.6166V14.0938C3.01344 14.903 5.01566 15.4994 7.49745 15.8708C7.73588 15.906 7.97024 15.9386 8.20324 15.9684H8.2046Z" fill="#94DDBC"/>
<path d="M9.46852 20.1683V18.2056H7.86593V20.7078L4.46837 21.8518L1.52734 19.454V17.8531L8.85349 16.0449C9.09869 16.072 9.33847 16.0951 9.57419 16.1168L12.5003 19.1463L9.46717 20.1683H9.46852Z" fill="#94DDBC"/>
<path d="M19.6302 15.6787L20.3319 16.511L12.7429 19.0647L9.92383 16.1464C11.3408 16.2616 12.5451 16.2846 13.274 16.2846C13.6722 16.2846 13.9025 16.2778 13.912 16.2765C14.0136 16.2738 16.4453 16.1938 19.1492 15.7587C19.3118 15.7329 19.4717 15.7058 19.6288 15.6787H19.6302Z" fill="#94DDBC"/>
<path d="M24.5246 15.0986L20.5662 16.4324L19.8916 15.6327C21.8735 15.268 23.4219 14.7855 24.5246 14.1904V15.0986Z" fill="#94DDBC"/>
<path d="M23.5826 20.0056L20.7256 16.621L24.5241 15.3428V19.7305L23.5826 20.0056Z" fill="#94DDBC"/>
<path d="M24.5244 21.1215L23.7441 20.1971L24.5244 19.9707V21.1215Z" fill="#94DDBC"/>
<path d="M18.1152 21.8318L23.5028 20.2676L24.5243 21.478V24.3259L19.4347 25.9931L18.1152 24.6268V21.8318Z" fill="#94DDBC"/>
<path d="M21.9789 28.6253L19.6123 26.1773L24.5244 24.5684V28.6253H21.9789Z" fill="#94DDBC"/>
<path d="M22.7001 14.2399L21.7207 12.8708L25.8782 11.8447C25.8241 12.025 25.7373 12.2297 25.5978 12.4439C25.0939 13.2138 24.0115 13.798 22.7001 14.2412V14.2399Z" fill="#94DDBC"/>
<path d="M16.7045 15.3993L15.7793 14.3366L18.0281 13.7822L19.1254 15.0821C18.2746 15.2204 17.4442 15.3234 16.7059 15.3993H16.7045Z" fill="#94DDBC"/>
<path d="M12.9844 15.026L15.5285 14.3984L16.4239 15.4272C14.9433 15.5709 13.8907 15.6035 13.8907 15.6035C13.8907 15.6035 13.7823 15.6062 13.5831 15.6089L12.9844 15.026Z" fill="#94DDBC"/>
<path d="M12.7206 15.0908L13.2543 15.6113C12.7246 15.6113 11.8983 15.5978 10.9053 15.5395L12.7206 15.0908Z" fill="#94DDBC"/>
<path d="M1.20117 13.1104L5.36006 11.7549L8.84974 15.3672C6.24332 15.0758 3.19934 14.4496 1.20117 13.1104Z" fill="#94DDBC"/>
<path d="M5.60352 11.676L8.30747 10.7949L12.5273 14.9034L10.1512 15.4903C9.8464 15.4673 9.5294 15.4388 9.20563 15.4063L5.60352 11.6773V11.676Z" fill="#94DDBC"/>
<path d="M8.55566 10.7125L11.4872 9.75684L15.3589 14.2028L12.7904 14.8372L8.55566 10.7125Z" fill="#94DDBC"/>
<path d="M11.7246 9.67929L13.9517 8.9541L17.8613 13.5844L15.6099 14.1415L11.7246 9.67929Z" fill="#94DDBC"/>
<path d="M14.1895 8.87611L17.7496 7.71582L21.3354 12.7284L18.1113 13.5241L14.1895 8.87611Z" fill="#94DDBC"/>
<path d="M9.28158 3.42174L6.87159 4.10761L6.48145 3.6603C7.13847 3.08422 7.79414 2.65589 8.36988 2.34277L9.28158 3.42309V3.42174Z" fill="#94DDBC"/>
<path d="M6.31037 3.81348L6.62602 4.17675L5.67773 4.44649C5.88636 4.21877 6.09769 4.00867 6.31037 3.81348Z" fill="#94DDBC"/>
<path d="M10.695 5.0958L8.29041 5.73559L7.04004 4.29878L9.44596 3.61426L10.695 5.0958Z" fill="#94DDBC"/>
<path d="M4.48254 6.74801L4.21973 6.49183C4.46357 6.04316 4.75483 5.58636 5.10163 5.13363C5.19917 5.00757 5.2967 4.88558 5.39695 4.7663L6.79499 4.36914L8.04265 5.80189L4.48254 6.74801Z" fill="#94DDBC"/>
<path d="M4.22355 6.81758L4.02441 6.87045C4.05151 6.81487 4.0786 6.76065 4.10705 6.70508L4.2222 6.81758H4.22355Z" fill="#94DDBC"/>
<path d="M3.81145 9.81924L3.64618 9.97919L5.18239 11.5705L1.08311 12.907L1.13459 13.0643C1.07363 13.0236 1.01402 12.9816 0.955768 12.9382C0.42744 12.5505 0.0427088 12.1073 0.00342293 11.5746C-0.0981786 10.2205 2.0937 9.1415 2.36871 9.01002C2.35922 9.67421 2.34974 10.3397 2.3389 11.0053H2.96612C2.99593 10.3411 3.12598 8.83923 3.89679 7.14217L4.41699 7.00391L8.12206 10.6122L5.42624 11.4906L3.81145 9.81924Z" fill="#94DDBC"/>
<path d="M8.36866 10.5309L4.67578 6.93485L8.21016 5.99414L11.3232 9.56855L8.36866 10.5309Z" fill="#94DDBC"/>
<path d="M11.5602 9.49106L8.45801 5.92885L10.8585 5.28906L13.7928 8.76316L11.5602 9.49106Z" fill="#94DDBC"/>
<path d="M15.0466 3.9384L10.9419 5.02956L9.6875 3.54531L13.9074 2.3457L15.0466 3.9384Z" fill="#94DDBC"/>
<path d="M13.7652 2.14748L9.52505 3.3525L8.57812 2.23016C9.09562 1.96313 9.53453 1.78963 9.83121 1.68255C9.84069 1.29352 9.85018 0.903146 9.85966 0.514122C10.4408 0.316222 11.2604 0.0952781 12.248 0.0234375L13.7666 2.14612L13.7652 2.14748Z" fill="#94DDBC"/>
<path d="M14.0285 8.68805L11.1064 5.22479L15.1895 4.1377L17.6103 7.51962L14.0285 8.68805Z" fill="#94DDBC"/>
<path d="M19.453 2.76498L15.2846 3.87376L14.1426 2.27836L17.5442 1.31055C18.2771 1.74972 18.9124 2.25667 19.4516 2.76362L19.453 2.76498Z" fill="#94DDBC"/>
<path d="M14.0016 2.07952L12.5195 0.0083468C12.869 -0.00656351 13.2362 -0.00249707 13.6209 0.028679C15.0162 0.14254 16.2327 0.573583 17.2691 1.15102L14.0016 2.07952Z" fill="#94DDBC"/>
<path d="M17.8391 7.4446L15.4277 4.07351L19.6462 2.95117C20.9074 4.19415 21.5902 5.3924 21.6823 5.55912C21.7826 5.74076 21.8747 5.92103 21.9587 6.10131L17.8391 7.4446Z" fill="#94DDBC"/>
<path d="M25.9369 11.5921L21.5762 12.6684L17.9795 7.64087L22.0557 6.3125C22.8631 8.10987 23.0189 9.80558 23.0149 10.9442C23.2357 10.9442 23.4565 10.9455 23.676 10.9469C23.6868 10.299 23.6976 9.65105 23.7085 9.00313C24.4603 9.29998 24.9412 9.71205 25.204 9.97637C25.5332 10.3085 25.8882 10.665 25.9559 11.1909C25.9559 11.1909 25.9762 11.3481 25.9356 11.5935L25.9369 11.5921Z" fill="#94DDBC"/>
<path d="M19.3886 15.0365L18.2764 13.719L21.4788 12.9287L22.4705 14.314C21.51 14.6204 20.4384 14.8562 19.3886 15.0365Z" fill="#94DDBC"/>
<path d="M34 12.7363V1.47266H36.8843C39.3618 1.47266 40.6313 2.50864 40.6313 4.82903C40.6313 7.14941 39.3301 8.26468 36.8843 8.26468H35.8647V12.7346H34V12.7363ZM36.9635 6.61733C37.8721 6.61733 38.7191 6.20857 38.7191 4.82903C38.7191 3.62038 38.0922 3.16582 36.9952 3.16582H35.8665V6.61733H36.9635Z" fill="#94DDBC"/>
<path d="M43.2999 1.47266H41.6377V12.7363H43.2999V1.47266Z" fill="#94DDBC"/>
<path d="M48.4415 12.736L48.3464 11.8726C47.7037 12.5316 46.9835 12.8769 46.1366 12.8769C44.992 12.8769 44.3018 12.0929 44.3018 10.7274C44.3018 9.80245 44.631 9.09593 45.3354 8.57794C45.9622 8.09167 46.9976 7.74634 48.2672 7.3693C48.3605 6.30337 48.1263 5.78537 47.2952 5.78537C46.6049 5.78537 46.214 6.19237 45.9781 6.91473L44.6293 6.58526C44.9902 5.26738 45.7897 4.41992 47.3885 4.41992C49.1599 4.41992 49.8977 5.26738 49.8977 6.99226V11.1961L50.0227 12.7342H48.4397L48.4415 12.736ZM48.2231 8.54623C47.3304 8.79818 46.8268 9.00079 46.4676 9.29855C46.1383 9.56459 46.0133 9.9892 46.0133 10.4755C46.0133 11.0868 46.2809 11.4797 46.8127 11.4797C47.3445 11.4797 47.8639 11.182 48.2231 10.6957V8.54623Z" fill="#94DDBC"/>
<path d="M55.167 12.7363V7.26221C55.167 6.36894 54.8994 6.00775 54.32 6.00775C53.8816 6.00775 53.4572 6.24208 52.9572 6.8235V12.7381H51.2949V4.58063H52.9096V5.55319C53.584 4.80087 54.2109 4.42383 55.042 4.42383C55.7322 4.42383 56.2341 4.68987 56.4841 5.16029C56.75 5.58314 56.8134 6.18041 56.8134 7.07368V12.7363H55.167Z" fill="#94DDBC"/>
<path d="M60.8154 12.8781C58.8555 12.8781 57.8994 11.5761 57.8994 8.61082C57.8994 5.97506 58.9189 4.42285 60.8471 4.42285C62.9636 4.42285 63.7014 6.10192 63.7014 8.18797C63.7014 8.4223 63.7014 8.69011 63.6855 8.98787H59.5C59.5634 10.6969 59.9244 11.4985 60.8964 11.4985C61.6482 11.4985 62.0568 10.9805 62.2909 10.1331L63.6873 10.415C63.2488 12.1399 62.2909 12.8781 60.8189 12.8781M59.5141 7.77922H62.1008C62.1008 6.57057 61.724 5.75483 60.8471 5.75483C60.0318 5.75483 59.625 6.47543 59.5141 7.77922Z" fill="#94DDBC"/>
<path d="M68.4457 12.6885C68.039 12.766 67.6305 12.8136 67.1603 12.8136C65.8133 12.8136 65.3097 12.3114 65.3097 10.7592V5.97573H64.2285V4.58033H65.3097V1.92871H66.9561V4.58033H68.4457V5.97573H66.9561V10.4773C66.9561 11.0587 67.1762 11.2931 67.6622 11.2931C67.914 11.2931 68.1798 11.2614 68.4457 11.1838V12.6902V12.6885Z" fill="#94DDBC"/>
<path d="M73.2833 12.736L73.1882 11.8726C72.5455 12.5316 71.8253 12.8769 70.9783 12.8769C69.8338 12.8769 69.1436 12.0929 69.1436 10.7274C69.1436 9.80245 69.4728 9.09593 70.1772 8.57794C70.804 8.09167 71.8394 7.74634 73.109 7.3693C73.2023 6.30337 72.9681 5.78537 72.137 5.78537C71.4467 5.78537 71.0558 6.19237 70.8199 6.91473L69.4711 6.58526C69.832 5.26738 70.6315 4.41992 72.2303 4.41992C74.0017 4.41992 74.7395 5.26738 74.7395 6.99226V11.1961L74.8645 12.7342H73.2815L73.2833 12.736ZM73.0649 8.54623C72.1722 8.79818 71.6686 9.00079 71.3094 9.29855C70.9801 9.56459 70.8551 9.9892 70.8551 10.4755C70.8551 11.0868 71.1227 11.4797 71.6545 11.4797C72.1863 11.4797 72.7057 11.182 73.0649 10.6957V8.54623Z" fill="#94DDBC"/>
<path d="M76.1365 12.7371V4.57966H77.7512V5.92925C78.2848 4.9567 78.8165 4.42285 79.6793 4.42285C79.7568 4.42285 79.8361 4.43871 79.9452 4.45456V6.16535C79.8202 6.14949 79.6952 6.13363 79.6159 6.13363C78.8165 6.13363 78.2372 6.61991 77.797 7.52904V12.7371H76.1348H76.1365Z" fill="#94DDBC"/>
<path d="M80.7432 1.39551H82.467V3.24724H80.7432V1.39551ZM80.7749 4.57921H82.4371V12.7367H80.7749V4.57921Z" fill="#94DDBC"/>
<path d="M87.7302 12.7366V11.764C87.0399 12.5163 86.4131 12.8775 85.582 12.8775C84.8935 12.8775 84.4216 12.6273 84.1557 12.1569C83.8898 11.7341 83.8105 11.1368 83.8105 10.2435V4.58086H85.5045V10.055C85.5045 10.95 85.7246 11.3095 86.3356 11.3095C86.7582 11.3095 87.1826 11.0734 87.6685 10.4937V4.5791H89.3466V12.7366H87.7319H87.7302Z" fill="#94DDBC"/>
<path d="M98.1369 12.7371V7.19957C98.1369 6.29044 97.8076 6.00677 97.3692 6.00677C96.9307 6.00677 96.5222 6.27282 96.1154 6.77495V12.7354H94.4532V7.26123C94.4532 6.39791 94.2648 6.00677 93.7172 6.00677C93.2787 6.00677 92.8227 6.33624 92.4318 6.83838V12.7371H90.7695V4.57966H92.3842V5.53636C92.9952 4.82985 93.6696 4.42285 94.4374 4.42285C95.2526 4.42285 95.7228 4.83161 95.9429 5.53636C96.6014 4.79989 97.2283 4.42285 98.0436 4.42285C99.3448 4.42285 99.7833 5.41126 99.7833 6.93352V12.7371H98.1369Z" fill="#94DDBC"/>
<path d="M34 28.8596V17.5977H39.8477V19.2908H35.8665V22.2243H38.83V23.8558H35.8665V28.8596H34Z" fill="#94DDBC"/>
<path d="M40.2332 28.8592V20.7017H41.8479V22.0513C42.3814 21.0788 42.9132 20.5449 43.776 20.5449C43.8535 20.5449 43.9327 20.5608 44.0419 20.5766V22.2874C43.9169 22.2716 43.7919 22.2557 43.7126 22.2557C42.9132 22.2557 42.3339 22.742 41.8937 23.6511V28.8592H40.2314H40.2332Z" fill="#94DDBC"/>
<path d="M44.8398 17.5176H46.5637V19.3693H44.8398V17.5176ZM44.8715 20.703H46.5338V28.8605H44.8715V20.703Z" fill="#94DDBC"/>
<path d="M51.6088 28.8125C51.2021 28.89 50.7935 28.9376 50.3234 28.9376C48.9764 28.9376 48.4728 28.4355 48.4728 26.8832V22.0998H47.3916V20.7044H48.4728V18.0527H50.1191V20.7044H51.6088V22.0998H50.1191V26.6013C50.1191 27.1828 50.3392 27.4171 50.8252 27.4171C51.077 27.4171 51.3429 27.3854 51.6088 27.3079V28.8143V28.8125Z" fill="#94DDBC"/>
<path d="M52.2539 28.8598V27.6054L55.4516 22.0995H52.5515V20.7041H57.4273V21.9744L54.2278 27.4644H57.5206V28.8598H52.2539Z" fill="#94DDBC"/>
<path d="M60.132 17.5977H58.4697V28.8613H60.132V17.5977Z" fill="#94DDBC"/>
<path d="M65.2765 28.859L65.1814 27.9957C64.5387 28.6546 63.8185 29 62.9715 29C61.827 29 61.1367 28.2159 61.1367 26.8505C61.1367 25.9255 61.466 25.219 62.1703 24.701C62.7972 24.2147 63.8326 23.8694 65.1021 23.4923C65.1955 22.4264 64.9613 21.9084 64.1301 21.9084C63.4399 21.9084 63.049 22.3154 62.813 23.0378L61.4642 22.7083C61.8252 21.3904 62.6246 20.543 64.2235 20.543C65.9949 20.543 66.7327 21.3904 66.7327 23.1153V27.3191L66.8577 28.8573H65.2747L65.2765 28.859ZM65.0581 24.671C64.1654 24.923 63.6618 25.1256 63.3026 25.4234C62.9733 25.6894 62.8483 26.114 62.8483 26.6003C62.8483 27.2117 63.1159 27.6046 63.6477 27.6046C64.1795 27.6046 64.6989 27.3068 65.0581 26.8205V24.671Z" fill="#94DDBC"/>
<path d="M68.1277 28.8592V20.7017H69.7424V22.0513C70.276 21.0788 70.8095 20.5449 71.6705 20.5449C71.748 20.5449 71.8273 20.5608 71.9364 20.5766V22.2874C71.8114 22.2716 71.6864 22.2557 71.6072 22.2557C70.8077 22.2557 70.2284 22.742 69.7882 23.6511V28.8592H68.126H68.1277Z" fill="#94DDBC"/>
</svg>
