<svg width="26" height="29" viewBox="0 0 26 29" fill="none" xmlns="http://www.w3.org/2000/svg">
<path d="M8.22203 15.9741L1.53027 17.6247V14.0977C3.01742 14.9069 5.02126 15.5034 7.50649 15.875C7.74679 15.9111 7.98557 15.9441 8.22203 15.9741Z" fill="#111144"/>
<path d="M4.2274 21.9454L1.53027 22.8529V19.748L4.2274 21.9454Z" fill="#111144"/>
<path d="M7.56944 24.6677L1.53027 26.4197V23.07L1.53795 23.093L4.43853 22.1172L7.56944 24.6677Z" fill="#111144"/>
<path d="M7.78672 24.8447L8.00015 25.0182L7.93643 28.6351H1.53027V26.6597L7.78672 24.8447Z" fill="#111144"/>
<path d="M4.69629 22.031L8.07211 20.8955L8.00839 24.5408L7.83795 24.5899L4.69629 22.031Z" fill="#111144"/>
<path d="M12.5261 19.1535L9.27616 20.2468L9.24085 18.2299L8.11916 18.2161L8.07616 20.6506L4.48537 21.8591L1.53027 19.4514V17.8629L8.87156 16.0518H8.87232C9.11877 16.0786 9.36062 16.1024 9.59785 16.1239L12.5261 19.1535Z" fill="#111144"/>
<path d="M15.6035 22.3365L9.344 24.153L9.28027 20.4885L12.7037 19.3369L15.6035 22.3365Z" fill="#111144"/>
<path d="M9.37891 26.1416L12.1474 28.3973L11.4204 28.6353H9.4219L9.37891 26.1416Z" fill="#111144"/>
<path d="M12.3598 28.5693L12.4396 28.6346H12.1602L12.3598 28.5693Z" fill="#111144"/>
<path d="M12.6201 28.484L16.6293 27.1719L16.604 28.6344H12.8051L12.6201 28.484Z" fill="#111144"/>
<path d="M16.6943 23.4647L16.6337 26.9281L12.4072 28.3116L9.37299 25.8394L9.34766 24.3914L15.7845 22.5234L16.6943 23.4647Z" fill="#111144"/>
<path d="M16.0342 22.4512L16.7152 22.2539L16.6998 23.1391L16.0342 22.4512Z" fill="#111144"/>
<path d="M12.7678 19.0725L9.94629 16.1542C11.3597 16.2694 12.5597 16.2917 13.2883 16.2917C13.6876 16.2917 13.9179 16.2847 13.9271 16.284C14.0292 16.2809 16.463 16.2018 19.1693 15.7657C19.3352 15.7389 19.4987 15.712 19.6592 15.6836L20.3632 16.5166L12.7678 19.0725Z" fill="#111144"/>
<path d="M23.3745 20.0819L17.968 21.6512L17.9089 18.2301L16.7864 18.2162L16.7196 22.0136L15.8536 22.2646L12.9453 19.2558L20.5231 16.7061L23.3745 20.0819Z" fill="#111144"/>
<path d="M24.5491 14.1953V15.1089L20.599 16.4379L19.9219 15.6356C21.9012 15.2717 23.4466 14.7896 24.5491 14.1953Z" fill="#111144"/>
<path d="M20.7578 16.6268L24.5482 15.3516V19.7416L23.6169 20.0118L20.7578 16.6268Z" fill="#111144"/>
<path d="M23.7793 20.2039L24.5486 19.9805V21.1144L23.7793 20.2039Z" fill="#111144"/>
<path d="M19.2227 26.0805L18.0511 26.4636L18.0234 24.8398L19.2227 26.0805Z" fill="#111144"/>
<path d="M19.4008 26.2646L21.6918 28.6347H18.0887L18.0557 26.7053L19.4008 26.2646Z" fill="#111144"/>
<path d="M24.5483 21.4713V24.3374L19.4657 26.0011L18.017 24.5024L17.9717 21.8898L23.5371 20.2744L24.5483 21.4713Z" fill="#111144"/>
<path d="M19.6445 26.1845L24.549 24.5791V28.6344H22.0123L19.6445 26.1845Z" fill="#111144"/>
<path d="M4.23945 6.81899L4.02832 6.87503C4.05673 6.81669 4.0859 6.75834 4.11661 6.69922L4.23945 6.81899Z" fill="#111144"/>
<path d="M6.6465 4.17691L5.68066 4.451C5.89256 4.21913 6.1083 4.00493 6.32404 3.80762L6.6465 4.17691Z" fill="#111144"/>
<path d="M4.49974 6.74918L4.22949 6.48584C4.47287 6.03824 4.76231 5.5845 5.10857 5.13383C5.20454 5.00868 5.30205 4.88738 5.40109 4.77068L6.81453 4.36914L8.0629 5.80177L4.49974 6.74918Z" fill="#111144"/>
<path d="M5.22645 11.6009L1.013 12.9821C0.994575 12.969 0.975382 12.956 0.956955 12.9421C0.427971 12.5544 0.0433256 12.1107 0.00340231 11.5778C-0.0979415 10.2235 2.09631 9.14329 2.37039 9.01201C2.36118 9.67688 2.3512 10.3425 2.34199 11.0082H2.96924C2.99919 10.3441 3.13047 8.8431 3.89976 7.14789L4.43259 7.00586L8.16542 10.6381L5.46983 11.521L3.8276 9.82276L3.66176 9.98245L5.22645 11.6009Z" fill="#111144"/>
<path d="M5.40398 11.7852L8.87193 15.3721C6.28152 15.085 3.25503 14.4654 1.25195 13.1464L5.40398 11.7852Z" fill="#111144"/>
<path d="M6.89149 4.10736L6.49609 3.65438C7.15406 3.07857 7.81126 2.65093 8.38784 2.33691L9.30378 3.42175L6.89149 4.10736Z" fill="#111144"/>
<path d="M9.46704 3.61523L10.7177 5.09624L8.31004 5.73654L7.05859 4.29931L9.46704 3.61523Z" fill="#111144"/>
<path d="M4.69238 6.93639L8.23174 5.99512L11.3626 9.58975L8.41216 10.5564L4.69238 6.93639Z" fill="#111144"/>
<path d="M12.5509 14.9069L10.1701 15.4942C9.86607 15.4712 9.55129 15.4435 9.22807 15.4105L5.64648 11.7053L8.35052 10.8193L12.5509 14.9069Z" fill="#111144"/>
<path d="M12.7469 15.0957L13.2813 15.6162C12.753 15.6162 11.9246 15.6032 10.9258 15.5448L12.7469 15.0957Z" fill="#111144"/>
<path d="M9.54793 3.35222L8.59668 2.22592C9.11031 1.96105 9.54639 1.78907 9.84198 1.68235C9.85119 1.2931 9.86117 0.903077 9.87039 0.513825C10.4539 0.314976 11.2792 0.0930945 12.2719 0.0224609L13.7921 2.14684L9.54793 3.35222Z" fill="#111144"/>
<path d="M10.8826 5.29102L13.8308 8.782L11.6004 9.51291L8.47949 5.93056L10.8826 5.29102Z" fill="#111144"/>
<path d="M13.9342 2.34668L15.0735 3.93901L10.9645 5.03152L9.70996 3.54668L13.9342 2.34668Z" fill="#111144"/>
<path d="M12.8151 14.8419L8.59863 10.7382L11.5269 9.7793L15.3856 14.2077L12.8151 14.8419Z" fill="#111144"/>
<path d="M15.5556 14.4033L16.4516 15.4321C14.9637 15.5765 13.9065 15.6095 13.9065 15.6095C13.9065 15.6095 13.8021 15.6125 13.6102 15.6148L13.0098 15.0313L15.5556 14.4033Z" fill="#111144"/>
<path d="M14.0272 2.07992L12.5439 0.00775047C12.8902 -0.0068369 13.2541 -0.0014626 13.6342 0.0292476C15.0322 0.142876 16.2514 0.57589 17.2894 1.15324L14.0272 2.07992Z" fill="#111144"/>
<path d="M14.0663 8.70354L11.1289 5.22484L15.2172 4.1377L17.6456 7.53041L14.0663 8.70354Z" fill="#111144"/>
<path d="M15.6372 14.1464L11.7646 9.70105L13.9911 8.97168L17.8913 13.5897L15.6372 14.1464Z" fill="#111144"/>
<path d="M18.0569 13.7852L19.1541 15.0834C18.3034 15.2232 17.4727 15.326 16.7326 15.4028L15.8066 14.3402L18.0569 13.7852Z" fill="#111144"/>
<path d="M14.1689 2.27931L17.5663 1.31348C18.2987 1.75263 18.9352 2.26012 19.4749 2.76761L15.3114 3.87471L14.1689 2.27931Z" fill="#111144"/>
<path d="M18.1406 13.5279L14.2266 8.89376L17.7859 7.72754L21.3675 12.7318L18.1406 13.5279Z" fill="#111144"/>
<path d="M15.4551 4.07523L19.6685 2.95508C20.9299 4.19654 21.6117 5.39501 21.7038 5.56161C21.8044 5.7451 21.8981 5.92783 21.9841 6.10979L17.875 7.45566L15.4551 4.07523Z" fill="#111144"/>
<path d="M21.512 12.9336L22.5017 14.3163C21.5397 14.6242 20.4686 14.8599 19.4176 15.0403L18.3066 13.7244L21.512 12.9336Z" fill="#111144"/>
<path d="M21.7529 12.8748L25.9027 11.8506C25.8489 12.0302 25.7614 12.2337 25.6224 12.4464C25.1188 13.2141 24.0401 13.7984 22.7311 14.2406L21.7529 12.8748Z" fill="#111144"/>
<path d="M25.9619 11.5986L21.6087 12.6727L18.0156 7.65237L22.0817 6.32031C22.887 8.11609 23.0414 9.80976 23.0383 10.9483C23.2586 10.9491 23.479 10.9499 23.7001 10.9506C23.7101 10.3027 23.7208 9.65391 23.7316 9.00592C24.4855 9.30228 24.9661 9.71456 25.2287 9.97944C25.5588 10.3119 25.9128 10.6681 25.9826 11.194C25.9826 11.194 26.0034 11.3522 25.9619 11.5986Z" fill="#111144"/>
</svg>
