<svg width="54" height="62" viewBox="0 0 54 62" fill="none" xmlns="http://www.w3.org/2000/svg">
<path d="M32.8027 30.628L34.2436 30.1562L36.8717 32.8777H32.8027V30.628Z" fill="#9B9BE3"/>
<path d="M32.8027 28.666L34.0382 29.9474L32.8027 30.3522V28.666Z" fill="#9B9BE3"/>
<path d="M26.1643 32.8066L26.2561 32.8814H25.9355L26.1643 32.8066Z" fill="#9B9BE3"/>
<path d="M30.9603 31.2344V32.88H26.6735L26.4619 32.7072L30.9603 31.2344Z" fill="#9B9BE3"/>
<path d="M22.8701 30.1211L25.9183 32.6075L25.0843 32.8799H22.8701V30.1211Z" fill="#9B9BE3"/>
<path d="M21.0305 28.6208V32.8789H13.75V30.6074L20.9154 28.5273L21.0305 28.6208Z" fill="#9B9BE3"/>
<path d="M16.8324 25.1988L13.75 26.2357V22.6875L16.8324 25.1988Z" fill="#9B9BE3"/>
<path d="M20.6664 28.3231L13.75 30.3315V26.5124L17.0736 25.3945L20.6664 28.3231Z" fill="#9B9BE3"/>
<path d="M17.3701 25.2956L21.0298 24.0625V28.2179L20.9754 28.2335L17.3701 25.2956Z" fill="#9B9BE3"/>
<path d="M22.8701 27.9585L30.0931 25.8613L30.9598 26.7597V30.954L26.2171 32.5078L22.8701 29.7785V27.9585Z" fill="#9B9BE3"/>
<path d="M30.9603 26.382L30.3799 25.781L30.9603 25.6113V26.382Z" fill="#9B9BE3"/>
<path d="M22.8701 23.444L26.5578 22.2031L29.8861 25.647L22.8701 27.685V23.444Z" fill="#9B9BE3"/>
<path d="M26.8359 22.1102L35.5324 19.1816L38.8047 23.0584L32.8032 24.8005V20.9114H30.9609V25.3361L30.1736 25.565L26.8359 22.1102Z" fill="#9B9BE3"/>
<path d="M21.4195 18.3407L13.75 20.2339V16.1875C15.4569 17.117 17.7567 17.802 20.6073 18.2286C20.8811 18.2691 21.1503 18.3065 21.418 18.3407H21.4195Z" fill="#9B9BE3"/>
<path d="M22.8713 23.1658V20.9114H21.0305V23.7855L17.1281 25.0995L13.75 22.3453V20.5066L22.1648 18.4297C22.4465 18.4608 22.7219 18.4873 22.9926 18.5122L26.3536 21.9919L22.8697 23.1658H22.8713Z" fill="#9B9BE3"/>
<path d="M34.5423 18.0098L35.3483 18.9657L26.6316 21.8989L23.3936 18.5469C25.0211 18.6792 26.4044 18.7057 27.2415 18.7057C27.699 18.7057 27.9635 18.6979 27.9744 18.6964C28.0911 18.6933 30.8841 18.6014 33.9899 18.1016C34.1766 18.072 34.3602 18.0409 34.5407 18.0098H34.5423Z" fill="#9B9BE3"/>
<path d="M40.1643 17.3439L35.6177 18.8759L34.8428 17.9573C37.1192 17.5385 38.8977 16.9843 40.1643 16.3008V17.3439Z" fill="#9B9BE3"/>
<path d="M39.0824 22.9788L35.8008 19.0912L40.1638 17.623V22.6628L39.0824 22.9788Z" fill="#9B9BE3"/>
<path d="M40.1638 24.2593L39.2676 23.1975L40.1638 22.9375V24.2593Z" fill="#9B9BE3"/>
<path d="M32.8027 25.076L38.9909 23.2793L40.1642 24.6696V27.9407L34.3183 29.8557L32.8027 28.2863V25.076Z" fill="#9B9BE3"/>
<path d="M37.2408 32.8786L34.5225 30.0668L40.1645 28.2188V32.8786H37.2408Z" fill="#9B9BE3"/>
<path d="M38.0693 16.3546L36.9443 14.7821L41.7197 13.6035C41.6575 13.8106 41.5579 14.0457 41.3976 14.2917C40.8188 15.176 39.5755 15.847 38.0693 16.3561V16.3546Z" fill="#9B9BE3"/>
<path d="M31.1829 17.6855L30.1201 16.4649L32.7031 15.8281L33.9634 17.3212C32.9863 17.48 32.0324 17.5983 31.1844 17.6855H31.1829Z" fill="#9B9BE3"/>
<path d="M26.9092 17.258L29.8313 16.5371L30.8599 17.7188C29.1592 17.8838 27.9501 17.9212 27.9501 17.9212C27.9501 17.9212 27.8257 17.9243 27.5969 17.9274L26.9092 17.258Z" fill="#9B9BE3"/>
<path d="M26.6055 17.332L27.2186 17.9299C26.6102 17.9299 25.6611 17.9143 24.5205 17.8474L26.6055 17.332Z" fill="#9B9BE3"/>
<path d="M13.375 15.0569L18.1519 13.5L22.1602 17.6492C19.1664 17.3144 15.6701 16.5951 13.375 15.0569Z" fill="#9B9BE3"/>
<path d="M18.4316 13.4124L21.5374 12.4004L26.3844 17.1194L23.6551 17.7935C23.305 17.7671 22.9409 17.7344 22.569 17.697L18.4316 13.4139V13.4124Z" fill="#9B9BE3"/>
<path d="M21.8223 12.3066L25.1894 11.209L29.6365 16.3157L26.6863 17.0443L21.8223 12.3066Z" fill="#9B9BE3"/>
<path d="M25.4629 11.1162L28.021 10.2832L32.5116 15.6016L29.9255 16.2415L25.4629 11.1162Z" fill="#9B9BE3"/>
<path d="M28.2939 10.198L32.3831 8.86523L36.5018 14.6227L32.7986 15.5366L28.2939 10.198Z" fill="#9B9BE3"/>
<path d="M22.6557 3.93071L19.8876 4.71851L19.4395 4.20473C20.1941 3.54304 20.9472 3.05105 21.6085 2.69141L22.6557 3.93227V3.93071Z" fill="#9B9BE3"/>
<path d="M19.2433 4.37891L19.6058 4.79616L18.5166 5.10598C18.7562 4.84442 18.999 4.6031 19.2433 4.37891Z" fill="#9B9BE3"/>
<path d="M24.2801 5.8521L21.5182 6.58696L20.082 4.93663L22.8455 4.15039L24.2801 5.8521Z" fill="#9B9BE3"/>
<path d="M17.1437 7.75191L16.8418 7.45766C17.1219 6.94232 17.4564 6.41764 17.8548 5.89763C17.9668 5.75284 18.0788 5.61272 18.194 5.47571L19.7998 5.01953L21.2328 6.66519L17.1437 7.75191Z" fill="#9B9BE3"/>
<path d="M16.8469 7.8304L16.6182 7.89112C16.6493 7.82728 16.6804 7.76501 16.7131 7.70117L16.8453 7.8304H16.8469Z" fill="#9B9BE3"/>
<path d="M16.373 11.2786L16.1831 11.4623L17.9476 13.2902L13.2392 14.8253L13.2983 15.0059C13.2283 14.9592 13.1598 14.9109 13.0929 14.8611C12.4861 14.4158 12.0442 13.9067 11.999 13.2948C11.8823 11.7395 14.4 10.5002 14.7158 10.3492C14.7049 11.112 14.694 11.8765 14.6816 12.6409H15.402C15.4363 11.878 15.5856 10.153 16.471 8.20373L17.0685 8.04492L21.3242 12.1894L18.2277 13.1983L16.373 11.2786Z" fill="#9B9BE3"/>
<path d="M21.6079 12.0977L17.3662 7.96722L21.4258 6.88672L25.0015 10.9923L21.6079 12.0977Z" fill="#9B9BE3"/>
<path d="M25.2732 10.9006L21.71 6.80908L24.4672 6.07422L27.8375 10.0646L25.2732 10.9006Z" fill="#9B9BE3"/>
<path d="M29.2776 4.52469L24.5629 5.778L23.1221 4.07318L27.969 2.69531L29.2776 4.52469Z" fill="#9B9BE3"/>
<path d="M27.8066 2.46507L22.9363 3.84917L21.8486 2.56005C22.443 2.25333 22.9472 2.05405 23.2879 1.93105C23.2988 1.48422 23.3097 1.03583 23.3206 0.588993C23.9881 0.361684 24.9295 0.107907 26.0638 0.0253906L27.8081 2.46352L27.8066 2.46507Z" fill="#9B9BE3"/>
<path d="M28.1082 9.97656L24.752 5.99864L29.4417 4.75L32.2223 8.6345L28.1082 9.97656Z" fill="#9B9BE3"/>
<path d="M34.3388 3.17643L29.551 4.44998L28.2393 2.6175L32.1464 1.50586C32.9882 2.0103 33.7179 2.59258 34.3372 3.17487L34.3388 3.17643Z" fill="#9B9BE3"/>
<path d="M28.0782 2.38855L26.376 0.00958717C26.7774 -0.00753888 27.1991 -0.00286814 27.641 0.0329409C29.2437 0.163722 30.641 0.65882 31.8313 1.32207L28.0782 2.38855Z" fill="#9B9BE3"/>
<path d="M32.4855 8.54984L29.7158 4.6778L34.5612 3.38867C36.0098 4.81636 36.7941 6.19267 36.8999 6.38417C37.015 6.5928 37.1208 6.79987 37.2173 7.00694L32.4855 8.54984Z" fill="#9B9BE3"/>
<path d="M41.7874 13.3161L36.7786 14.5523L32.6475 8.77773L37.3295 7.25195C38.2568 9.31642 38.4358 11.2641 38.4311 12.5719C38.6847 12.5719 38.9384 12.5735 39.1904 12.575C39.2029 11.8308 39.2153 11.0866 39.2278 10.3424C40.0914 10.6834 40.6437 11.1567 40.9456 11.4603C41.3237 11.8417 41.7314 12.2512 41.8092 12.8553C41.8092 12.8553 41.8325 13.0359 41.7858 13.3177L41.7874 13.3161Z" fill="#9B9BE3"/>
<path d="M34.2648 17.2726L32.9873 15.7592L36.6657 14.8516L37.8047 16.4427C36.7015 16.7946 35.4707 17.0655 34.2648 17.2726Z" fill="#9B9BE3"/>
<path d="M0 48.7188V39.5195H2.35563C4.37906 39.5195 5.41594 40.3656 5.41594 42.2607C5.41594 44.1559 4.35318 45.0667 2.35563 45.0667H1.52296V48.7174H0V48.7188ZM2.42035 43.7213C3.16242 43.7213 3.85415 43.3875 3.85415 42.2607C3.85415 41.2736 3.34218 40.9024 2.44623 40.9024H1.5244V43.7213H2.42035Z" fill="#9B9BE3"/>
<path d="M7.59586 39.5195H6.23828V48.7188H7.59586V39.5195Z" fill="#9B9BE3"/>
<path d="M11.7941 48.7157L11.7164 48.0106C11.1915 48.5488 10.6033 48.8308 9.9116 48.8308C8.97683 48.8308 8.41309 48.1905 8.41309 47.0753C8.41309 46.3199 8.68201 45.7428 9.25726 45.3198C9.76923 44.9226 10.6148 44.6406 11.6517 44.3326C11.7279 43.4621 11.5367 43.039 10.8579 43.039C10.2941 43.039 9.97488 43.3714 9.78217 43.9614L8.68058 43.6923C8.97539 42.616 9.62829 41.9238 10.9341 41.9238C12.3808 41.9238 12.9834 42.616 12.9834 44.0247V47.4581L13.0855 48.7143H11.7927L11.7941 48.7157ZM11.6158 45.2939C10.8866 45.4996 10.4753 45.6651 10.182 45.9083C9.91304 46.1256 9.81093 46.4724 9.81093 46.8695C9.81093 47.3688 10.0295 47.6897 10.4638 47.6897C10.8981 47.6897 11.3224 47.4466 11.6158 47.0494V45.2939Z" fill="#9B9BE3"/>
<path d="M17.2874 48.7167V44.2459C17.2874 43.5163 17.0688 43.2214 16.5957 43.2214C16.2376 43.2214 15.891 43.4127 15.4826 43.8876V48.7182H14.125V42.0558H15.4438V42.8501C15.9945 42.2357 16.5065 41.9277 17.1853 41.9277C17.7491 41.9277 18.1589 42.145 18.3631 42.5292C18.5803 42.8746 18.6321 43.3624 18.6321 44.0919V48.7167H17.2874Z" fill="#9B9BE3"/>
<path d="M21.9001 48.8333C20.2995 48.8333 19.5186 47.7699 19.5186 45.3481C19.5186 43.1955 20.3512 41.9277 21.926 41.9277C23.6546 41.9277 24.2571 43.2991 24.2571 45.0028C24.2571 45.1942 24.2571 45.4129 24.2442 45.6561H20.8258C20.8776 47.0519 21.1724 47.7066 21.9662 47.7066C22.5803 47.7066 22.9139 47.2835 23.1052 46.5914L24.2456 46.8216C23.8875 48.2304 23.1052 48.8333 21.903 48.8333M20.8373 44.669H22.9499C22.9499 43.6818 22.6421 43.0156 21.926 43.0156C21.2601 43.0156 20.9279 43.6041 20.8373 44.669Z" fill="#9B9BE3"/>
<path d="M28.1328 48.6784C27.8006 48.7417 27.4669 48.7805 27.0829 48.7805C25.9828 48.7805 25.5715 48.3704 25.5715 47.1027V43.1959H24.6885V42.0563H25.5715V39.8906H26.9161V42.0563H28.1328V43.1959H26.9161V46.8725C26.9161 47.3473 27.0959 47.5387 27.4928 47.5387C27.6985 47.5387 27.9156 47.5128 28.1328 47.4495V48.6798V48.6784Z" fill="#9B9BE3"/>
<path d="M32.0841 48.7157L32.0065 48.0106C31.4816 48.5488 30.8934 48.8308 30.2016 48.8308C29.2669 48.8308 28.7031 48.1905 28.7031 47.0753C28.7031 46.3199 28.9721 45.7428 29.5473 45.3198C30.0593 44.9226 30.9049 44.6406 31.9418 44.3326C32.018 43.4621 31.8267 43.039 31.1479 43.039C30.5842 43.039 30.2649 43.3714 30.0722 43.9614L28.9706 43.6923C29.2654 42.616 29.9183 41.9238 31.2241 41.9238C32.6709 41.9238 33.2735 42.616 33.2735 44.0247V47.4581L33.3756 48.7143H32.0827L32.0841 48.7157ZM31.9058 45.2939C31.1767 45.4996 30.7654 45.6651 30.472 45.9083C30.2031 46.1256 30.101 46.4724 30.101 46.8695C30.101 47.3688 30.3196 47.6897 30.7539 47.6897C31.1882 47.6897 31.6124 47.4466 31.9058 47.0494V45.2939Z" fill="#9B9BE3"/>
<path d="M34.4135 48.7182V42.0558H35.7323V43.158C36.168 42.3637 36.6024 41.9277 37.307 41.9277C37.3703 41.9277 37.435 41.9407 37.5242 41.9536V43.3509C37.4221 43.3379 37.32 43.325 37.2553 43.325C36.6024 43.325 36.1292 43.7221 35.7697 44.4646V48.7182H34.4121H34.4135Z" fill="#9B9BE3"/>
<path d="M38.1758 39.4551H39.5837V40.9674H38.1758V39.4551ZM38.2017 42.0553H39.5592V48.7177H38.2017V42.0553Z" fill="#9B9BE3"/>
<path d="M43.8829 48.7151V47.9208C43.3191 48.5352 42.8072 48.8302 42.1284 48.8302C41.5661 48.8302 41.1807 48.6259 40.9635 48.2417C40.7464 47.8963 40.6816 47.4085 40.6816 46.679V42.0542H42.0651V46.525C42.0651 47.256 42.2449 47.5496 42.7439 47.5496C43.089 47.5496 43.4356 47.3567 43.8326 46.8833V42.0527H45.2031V48.7151H43.8843H43.8829Z" fill="#9B9BE3"/>
<path d="M52.3823 48.7182V44.1955C52.3823 43.453 52.1134 43.2214 51.7553 43.2214C51.3972 43.2214 51.0636 43.4386 50.7314 43.8487V48.7167H49.3738V44.2459C49.3738 43.5408 49.2199 43.2214 48.7726 43.2214C48.4146 43.2214 48.0421 43.4904 47.7228 43.9005V48.7182H46.3652V42.0558H47.684V42.8372C48.183 42.2601 48.7338 41.9277 49.3608 41.9277C50.0267 41.9277 50.4107 42.2616 50.5904 42.8372C51.1283 42.2357 51.6402 41.9277 52.3061 41.9277C53.3689 41.9277 53.7269 42.735 53.7269 43.9783V48.7182H52.3823Z" fill="#9B9BE3"/>
<path d="M12.8223 61.8873V52.6895H17.5982V54.0723H14.3467V56.4682H16.767V57.8006H14.3467V61.8873H12.8223Z" fill="#9B9BE3"/>
<path d="M17.9145 61.8842V55.2218H19.2333V56.3241C19.669 55.5298 20.1033 55.0938 20.808 55.0938C20.8713 55.0938 20.936 55.1067 21.0252 55.1197V56.5169C20.9231 56.5039 20.821 56.491 20.7562 56.491C20.1033 56.491 19.6302 56.8881 19.2707 57.6306V61.8842H17.9131H17.9145Z" fill="#9B9BE3"/>
<path d="M21.6768 52.6211H23.0847V54.1334H21.6768V52.6211ZM21.7026 55.2227H23.0602V61.8851H21.7026V55.2227Z" fill="#9B9BE3"/>
<path d="M27.205 61.8483C26.8728 61.9116 26.5392 61.9504 26.1552 61.9504C25.055 61.9504 24.6437 61.5403 24.6437 60.2726V56.3658H23.7607V55.2262H24.6437V53.0605H25.9884V55.2262H27.205V56.3658H25.9884V60.0424C25.9884 60.5172 26.1681 60.7086 26.5651 60.7086C26.7707 60.7086 26.9879 60.6827 27.205 60.6194V61.8497V61.8483Z" fill="#9B9BE3"/>
<path d="M27.7314 61.8856V60.861L30.3431 56.3643H27.9745V55.2246H31.9566V56.2621L29.3436 60.7459H32.0328V61.8856H27.7314Z" fill="#9B9BE3"/>
<path d="M34.1652 52.6895H32.8076V61.8887H34.1652V52.6895Z" fill="#9B9BE3"/>
<path d="M38.3673 61.8856L38.2897 61.1805C37.7648 61.7187 37.1766 62.0008 36.4848 62.0008C35.5501 62.0008 34.9863 61.3604 34.9863 60.2452C34.9863 59.4898 35.2553 58.9128 35.8305 58.4897C36.3425 58.0925 37.1881 57.8105 38.225 57.5026C38.3012 56.632 38.1099 56.2089 37.4311 56.2089C36.8674 56.2089 36.5481 56.5413 36.3554 57.1313L35.2538 56.8622C35.5486 55.7859 36.2015 55.0938 37.5073 55.0938C38.9541 55.0938 39.5567 55.7859 39.5567 57.1946V60.628L39.6588 61.8842H38.3659L38.3673 61.8856ZM38.189 58.4652C37.4599 58.671 37.0486 58.8365 36.7552 59.0797C36.4863 59.297 36.3842 59.6437 36.3842 60.0409C36.3842 60.5402 36.6028 60.8611 37.0371 60.8611C37.4714 60.8611 37.8956 60.6179 38.189 60.2208V58.4652Z" fill="#9B9BE3"/>
<path d="M40.6958 61.8862V55.2238H42.0145V56.326C42.4503 55.5317 42.886 55.0957 43.5893 55.0957C43.6525 55.0957 43.7173 55.1087 43.8064 55.1216V56.5188C43.7043 56.5059 43.6022 56.4929 43.5375 56.4929C42.8846 56.4929 42.4114 56.8901 42.0519 57.6326V61.8862H40.6943H40.6958Z" fill="#9B9BE3"/>
</svg>
